<?xml version="1.0" standalone="no"?>
<!DOCTYPE svg PUBLIC "-//W3C//DTD SVG 20010904//EN"
 "http://www.w3.org/TR/2001/REC-SVG-20010904/DTD/svg10.dtd">

<?xml version="1.0" standalone="no"?>
<!DOCTYPE svg PUBLIC "-//W3C//DTD SVG 20010904//EN"
 "http://www.w3.org/TR/2001/REC-SVG-20010904/DTD/svg10.dtd">
<svg xmlns="http://www.w3.org/2000/svg" version="1.0" width="318.000000pt" height="318.000000pt" viewBox="0 0 1410.000000 1410.000000" preserveAspectRatio="xMidYMid meet">

<g transform="translate(0.000000,1410.000000) scale(0.100000,-0.100000)" fill="#1a2ea4" stroke="none">
<path d="M0 13421 l0 -680 27 -13 c15 -7 34 -26 41 -41 12 -24 11 -31 -2 -52 -9 -14 -27 -27 -41 -31 l-25 -6 0 -474 c0 -465 0 -474 19 -462 15 9 23 9 35 -1 20 -17 20 -26 0 -45 -12 -12 -20 -13 -35 -6 -19 11 -19 -2 -19 -803 0 -712 2 -816 15 -827 8 -7 15 -18 15 -25 0 -7 12 -16 26 -19 21 -6 24 -9 14 -21 -16 -19 -36 -19 -44 0 -3 8 -10 15 -16 15 -7 0 -10 -1561 -10 -4965 l0 -4965 7050 0 7050 0 0 3226 c0 2970 -1 3226 -16 3220 -15 -6 -15 -4 0 18 14 23 16 100 16 785 l0 761 -23 -9 c-36 -14 -50 0 -42 43 6 31 11 36 36 36 l29 0 0 425 c0 266 -4 425 -10 425 -16 0 -32 41 -26 66 4 13 13 24 21 24 13 0 15 303 15 2540 l0 2540 -2948 0 c-2313 0 -2951 -3 -2960 -12 -10 -10 -17 -10 -32 0 -15 9 -489 12 -2164 12 l-2144 0 -11 -30 c-7 -21 -17 -30 -31 -30 -28 0 -80 31 -80 47 0 10 -134 13 -684 13 -645 0 -684 -1 -682 -17 1 -13 -6 -18 -24 -18 -18 0 -25 5 -24 18 2 16 -60 17 -1157 17 l-1159 0 0 -679z m10024 551 c-14 -22 -44 -28 -44 -8 0 23 31 49 44 36 7 -7 8 -15 0 -28z m-5414 -7 c10 -12 10 -18 0 -30 -25 -30 -61 -7 -46 30 3 8 12 15 19 15 8 0 20 -7 27 -15z m6205 -102 c-7 -68 14 -112 64 -134 44 -20 38 -32 -11 -24 -79 14 -98 9 -145 -37 l-43 -42 6 61 7 61 -49 52 c-33 36 -42 51 -29 47 87 -26 135 -14 175 43 12 16 24 30 26 30 3 0 2 -26 -1 -57z m-875 37 c20 -13 2 -44 -29 -48 -17 -3 -21 2 -21 21 0 22 10 33 30 36 3 0 12 -4 20 -9z m-4677 -52 c33 -16 36 -51 5 -72 -44 -31 -88 -14 -88 34 0 47 31 61 83 38z m3251 -9 c-4 -7 0 -9 14 -5 26 9 45 -23 36 -58 -7 -29 -34 -41 -66 -30 -48 15 -62 52 -31 86 17 19 59 26 47 7z m-7953 -15 c11 -14 10 -20 -14 -40 -42 -36 -67 -32 -67 9 0 19 3 37 7 40 12 13 61 7 74 -9z m10009 -8 c20 -26 8 -61 -23 -64 -31 -4 -43 14 -33 53 7 28 36 34 56 11z m-349 -37 c7 -14 8 -24 1 -31 -17 -17 -42 -1 -42 27 0 31 25 34 41 4z m-7023 -49 c-4 -19 -48 -26 -59 -9 -5 8 -2 20 8 31 12 14 19 15 34 5 11 -7 18 -19 17 -27z m2242 -9 c0 -34 -18 -44 -41 -24 -24 20 -13 53 17 53 20 0 24 -5 24 -29z m-2076 -21 c14 -5 30 -18 36 -29 8 -17 7 -24 -10 -41 -39 -39 -89 -16 -90 41 0 40 16 48 64 29z m6906 -20 c0 -5 -4 -10 -10 -10 -5 0 -10 5 -10 10 0 6 5 10 10 10 6 0 10 -4 10 -10z m-3859 -10 c29 -16 25 -64 -7 -89 -38 -30 -60 -27 -73 9 -22 63 24 109 80 80z m4559 0 c0 -5 -4 -10 -10 -10 -5 0 -10 5 -10 10 0 6 5 10 10 10 6 0 10 -4 10 -10z m880 -16 c0 -8 -7 -14 -15 -14 -15 0 -21 21 -9 33 10 9 24 -2 24 -19z m-8587 -19 c4 -8 2 -17 -4 -21 -12 -7 -41 15 -33 27 8 14 31 11 37 -6z m-3115 -29 c3 -24 0 -27 -20 -24 -26 3 -37 36 -16 49 20 13 33 5 36 -25z m10882 24 c0 -5 -5 -10 -11 -10 -5 0 -7 5 -4 10 3 6 8 10 11 10 2 0 4 -4 4 -10z m-330 -20 c0 -5 -5 -10 -11 -10 -5 0 -7 5 -4 10 3 6 8 10 11 10 2 0 4 -4 4 -10z m1054 -13 c13 -21 -5 -37 -41 -37 -19 0 -23 5 -23 31 0 27 3 30 26 27 15 -2 32 -11 38 -21z m-664 -17 c0 -5 -2 -10 -4 -10 -3 0 -8 5 -11 10 -3 6 -1 10 4 10 6 0 11 -4 11 -10z m-4810 -19 c0 -22 -37 -38 -52 -23 -17 17 -1 42 27 42 18 0 25 -5 25 -19z m4870 -21 c0 -5 -4 -10 -10 -10 -5 0 -10 5 -10 10 0 6 5 10 10 10 6 0 10 -4 10 -10z m-470 -10 c0 -5 -2 -10 -4 -10 -3 0 -8 5 -11 10 -3 6 -1 10 4 10 6 0 11 -4 11 -10z m530 -30 c0 -5 -4 -10 -10 -10 -5 0 -10 5 -10 10 0 6 5 10 10 10 6 0 10 -4 10 -10z m-540 -34 c0 -3 -4 -8 -10 -11 -5 -3 -10 -1 -10 4 0 6 5 11 10 11 6 0 10 -2 10 -4z m600 -6 c0 -5 -5 -10 -11 -10 -5 0 -7 5 -4 10 3 6 8 10 11 10 2 0 4 -4 4 -10z m-3906 -32 c15 -24 -4 -53 -34 -53 -35 0 -48 29 -25 55 21 24 43 23 59 -2z m3966 -8 c0 -5 -5 -10 -11 -10 -5 0 -7 5 -4 10 3 6 8 10 11 10 2 0 4 -4 4 -10z m-680 -30 c0 -5 -4 -10 -10 -10 -5 0 -10 5 -10 10 0 6 5 10 10 10 6 0 10 -4 10 -10z m-3846 -23 c26 -19 18 -68 -16 -86 -24 -14 -28 -14 -48 4 -23 20 -25 72 -2 68 6 -2 11 0 11 5 -4 26 25 31 55 9z m4596 9 c0 -3 -4 -8 -10 -11 -5 -3 -10 -1 -10 4 0 6 5 11 10 11 6 0 10 -2 10 -4z m-1026 -27 c-3 -5 -10 -7 -15 -3 -5 3 -7 10 -3 15 3 5 10 7 15 3 5 -3 7 -10 3 -15z m-1374 -4 c0 -8 -7 -15 -15 -15 -16 0 -20 12 -8 23 11 12 23 8 23 -8z m-588 -30 c-6 -36 -28 -50 -57 -37 -45 21 -23 65 30 60 24 -2 29 -7 27 -23z m3048 17 c0 -14 85 -52 115 -52 16 0 48 11 72 25 23 14 43 25 43 23 0 -2 -11 -25 -25 -52 -31 -61 -31 -70 0 -125 14 -23 25 -47 25 -51 0 -5 -19 2 -42 15 -44 26 -98 33 -98 14 0 -6 -6 -9 -12 -6 -7 2 -28 -4 -45 -15 -18 -11 -33 -18 -33 -16 0 2 11 25 25 52 14 27 25 56 25 64 0 19 -51 112 -62 112 -4 0 -8 5 -8 10 0 6 5 10 10 10 6 0 10 -4 10 -8z m-830 -12 c0 -5 -5 -10 -11 -10 -5 0 -7 5 -4 10 3 6 8 10 11 10 2 0 4 -4 4 -10z m-570 -13 c0 -22 -26 -51 -38 -43 -13 8 -16 39 -5 49 11 12 43 7 43 -6z m329 -51 c22 -26 2 -76 -29 -76 -24 0 -36 40 -20 69 12 24 32 27 49 7z m1671 6 c0 -13 -12 -22 -22 -16 -10 6 -1 24 13 24 5 0 9 -4 9 -8z m-1445 -12 c3 -5 1 -10 -4 -10 -6 0 -11 5 -11 10 0 6 2 10 4 10 3 0 8 -4 11 -10z m-3565 -20 c22 -17 23 -21 10 -33 -24 -23 -59 -31 -65 -14 -7 16 11 67 22 67 5 0 19 -9 33 -20z m2969 -8 c11 -20 -2 -42 -25 -42 -18 0 -35 26 -28 44 8 22 41 20 53 -2z m-6871 -41 c-2 -22 -8 -26 -33 -26 -25 0 -31 4 -33 26 -2 19 3 28 20 36 30 14 50 -2 46 -36z m4873 -45 c-16 -19 -41 -10 -41 14 0 24 21 31 39 14 11 -10 12 -16 2 -28z m2579 40 c0 -3 -4 -8 -10 -11 -5 -3 -10 -1 -10 4 0 6 5 11 10 11 6 0 10 -2 10 -4z m-6824 -70 c3 -13 4 -35 2 -47 -4 -29 -35 -29 -73 -2 -33 24 -32 51 3 59 15 3 32 7 37 9 21 7 25 4 31 -19z m3810 13 c224 -39 438 -170 569 -347 33 -45 99 -159 146 -254 48 -95 86 -174 85 -175 0 0 -39 12 -86 28 -54 19 -96 27 -115 24 -62 -11 -229 -103 -292 -159 -56 -51 -88 -61 -65 -20 24 43 130 135 199 172 67 37 80 41 110 33 l33 -10 -62 122 c-55 107 -74 133 -153 212 -153 154 -309 218 -530 218 -222 -1 -376 -64 -531 -218 -86 -85 -95 -99 -173 -252 -45 -90 -80 -163 -78 -163 3 0 24 7 48 16 51 18 90 15 229 -21 139 -35 213 -61 311 -112 83 -42 198 -134 220 -175 10 -19 10 -19 -22 -2 -18 9 -64 41 -103 70 -123 94 -410 189 -607 201 -94 6 -99 5 -165 -26 -38 -18 -90 -45 -116 -61 -27 -17 -48 -27 -48 -24 0 23 270 533 311 587 122 161 332 290 539 332 80 16 266 19 346 4z m2490 0 c10 -17 -13 -36 -27 -22 -12 12 -4 33 11 33 5 0 12 -5 16 -11z m-240 -10 c3 -6 1 -16 -5 -22 -9 -9 -14 -8 -21 3 -9 15 -4 30 10 30 5 0 12 -5 16 -11z m744 -9 c0 -5 -4 -10 -10 -10 -5 0 -10 5 -10 10 0 6 5 10 10 10 6 0 10 -4 10 -10z m-4082 -22 c-6 -18 -28 -21 -28 -4 0 9 7 16 16 16 9 0 14 -5 12 -12z m5022 -18 c0 -5 -2 -10 -4 -10 -3 0 -8 5 -11 10 -3 6 -1 10 4 10 6 0 11 -4 11 -10z m-7567 -130 c12 0 37 4 55 9 17 5 32 7 32 4 0 -3 -16 -23 -35 -44 -37 -42 -41 -55 -25 -108 5 -19 8 -36 6 -38 -2 -2 -20 13 -39 32 -35 35 -39 36 -88 31 -28 -3 -55 -9 -60 -12 -20 -12 -7 9 27 43 36 36 36 37 30 96 l-6 59 40 -36 c22 -20 50 -36 63 -36z m7547 66 c0 -3 -4 -8 -10 -11 -5 -3 -10 -1 -10 4 0 6 5 11 10 11 6 0 10 -2 10 -4z m-950 -36 c0 -5 -4 -10 -10 -10 -5 0 -10 5 -10 10 0 6 5 10 10 10 6 0 10 -4 10 -10z m1176 -22 c8 -13 -16 -38 -37 -38 -13 0 -19 7 -19 23 0 13 3 26 6 29 7 8 43 -2 50 -14z m-256 -18 c0 -5 -2 -10 -4 -10 -3 0 -8 5 -11 10 -3 6 -1 10 4 10 6 0 11 -4 11 -10z m-940 -30 c0 -5 -5 -10 -11 -10 -5 0 -7 5 -4 10 3 6 8 10 11 10 2 0 4 -4 4 -10z m-6342 -29 c5 -32 -11 -46 -37 -32 -26 14 -27 36 -3 50 24 14 36 8 40 -18z m7262 -5 c0 -3 -4 -8 -10 -11 -5 -3 -10 -1 -10 4 0 6 5 11 10 11 6 0 10 -2 10 -4z m-2270 -41 c15 -18 5 -35 -20 -35 -10 0 -22 5 -25 10 -7 11 12 40 25 40 4 0 13 -7 20 -15z m1330 -1 c0 -8 -5 -12 -10 -9 -6 4 -8 11 -5 16 9 14 15 11 15 -7z m-1472 -41 c8 -52 -38 -81 -73 -47 -21 22 -15 46 15 61 34 17 54 12 58 -14z m2382 11 c0 -8 -5 -12 -10 -9 -6 4 -8 11 -5 16 9 14 15 11 15 -7z m-7585 -14 c3 -5 1 -10 -4 -10 -6 0 -11 5 -11 10 0 6 2 10 4 10 3 0 8 -4 11 -10z m2715 -5 c0 -8 -7 -15 -15 -15 -8 0 -15 7 -15 15 0 8 7 15 15 15 8 0 15 -7 15 -15z m5529 1 c18 -21 -6 -34 -52 -27 -13 2 13 41 27 41 8 0 19 -6 25 -14z m-1579 -20 c0 -3 -4 -8 -10 -11 -5 -3 -10 -1 -10 4 0 6 5 11 10 11 6 0 10 -2 10 -4z m895 -26 c3 -5 1 -10 -4 -10 -6 0 -11 5 -11 10 0 6 2 10 4 10 3 0 8 -4 11 -10z m-7595 -4 c0 -3 -4 -8 -10 -11 -5 -3 -10 -1 -10 4 0 6 5 11 10 11 6 0 10 -2 10 -4z m-2952 -58 c3 -16 -24 -32 -39 -22 -13 8 10 46 24 41 7 -2 13 -11 15 -19z m9632 12 c0 -5 -4 -10 -10 -10 -5 0 -10 5 -10 10 0 6 5 10 10 10 6 0 10 -4 10 -10z m-6720 -10 c0 -5 -4 -10 -10 -10 -5 0 -10 5 -10 10 0 6 5 10 10 10 6 0 10 -4 10 -10z m7610 -10 c0 -5 -5 -10 -11 -10 -5 0 -7 5 -4 10 3 6 8 10 11 10 2 0 4 -4 4 -10z m-7650 -40 c0 -5 -5 -10 -11 -10 -5 0 -7 5 -4 10 3 6 8 10 11 10 2 0 4 -4 4 -10z m6740 -10 c0 -5 -5 -10 -11 -10 -5 0 -7 5 -4 10 3 6 8 10 11 10 2 0 4 -4 4 -10z m885 -20 c3 -5 1 -10 -4 -10 -6 0 -11 5 -11 10 0 6 2 10 4 10 3 0 8 -4 11 -10z m-900 -50 c3 -5 1 -10 -4 -10 -6 0 -11 5 -11 10 0 6 2 10 4 10 3 0 8 -4 11 -10z m875 -20 c0 -5 -5 -10 -11 -10 -5 0 -7 5 -4 10 3 6 8 10 11 10 2 0 4 -4 4 -10z m-4095 -65 c39 -19 97 -56 129 -82 88 -71 184 -203 148 -203 -4 0 -28 24 -52 53 -66 79 -150 142 -261 195 -54 26 -98 50 -99 54 0 7 23 15 50 17 8 0 46 -15 85 -34z m3205 11 c0 -3 -4 -8 -10 -11 -5 -3 -10 -1 -10 4 0 6 5 11 10 11 6 0 10 -2 10 -4z m865 -16 c3 -5 1 -10 -4 -10 -6 0 -11 5 -11 10 0 6 2 10 4 10 3 0 8 -4 11 -10z m-8063 -52 c8 -21 -2 -38 -22 -38 -22 0 -33 23 -17 39 15 15 34 14 39 -1z m7159 -68 c6 0 8 -4 4 -9 -10 -18 39 -41 87 -41 57 0 61 -10 13 -33 -19 -9 -35 -22 -35 -27 0 -6 -4 -9 -9 -5 -15 8 -33 -32 -40 -89 l-7 -51 -21 40 c-32 61 -58 79 -122 85 l-56 5 52 28 c61 31 68 43 78 117 l7 54 19 -37 c11 -20 24 -37 30 -37z m19 60 c0 -5 -2 -10 -4 -10 -3 0 -8 5 -11 10 -3 6 -1 10 4 10 6 0 11 -4 11 -10z m-2759 -62 c22 -42 40 -124 32 -144 -8 -22 -33 -3 -33 25 0 15 -11 61 -25 101 -14 40 -25 76 -25 78 0 13 34 -27 51 -60z m3619 52 c0 -5 -5 -10 -11 -10 -5 0 -7 5 -4 10 3 6 8 10 11 10 2 0 4 -4 4 -10z m-9804 -45 c8 -20 -13 -45 -37 -45 -23 0 -29 11 -22 38 6 26 50 31 59 7z m9784 -25 c0 -5 -4 -10 -10 -10 -5 0 -10 5 -10 10 0 6 5 10 10 10 6 0 10 -4 10 -10z m-7765 -10 c3 -5 1 -10 -4 -10 -6 0 -11 5 -11 10 0 6 2 10 4 10 3 0 8 -4 11 -10z m6018 -21 c17 -27 0 -66 -34 -78 -36 -12 -47 -8 -59 23 -8 21 3 54 24 69 17 12 58 4 69 -14z m1717 -39 c0 -5 -4 -10 -10 -10 -5 0 -10 5 -10 10 0 6 5 10 10 10 6 0 10 -4 10 -10z m-690 -40 c0 -5 -2 -10 -4 -10 -3 0 -8 5 -11 10 -3 6 -1 10 4 10 6 0 11 -4 11 -10z m-9171 -31 c29 -52 -5 -98 -62 -84 -35 9 -40 28 -20 76 13 34 20 40 41 37 16 -2 32 -13 41 -29z m2051 21 c0 -5 -4 -10 -10 -10 -5 0 -10 5 -10 10 0 6 5 10 10 10 6 0 10 -4 10 -10z m5080 -19 c103 -26 226 -73 300 -115 30 -17 66 -33 80 -36 16 -3 44 -30 77 -75 75 -99 71 -106 -23 -49 -210 130 -341 188 -505 224 -112 25 -293 39 -375 29 -33 -4 -71 -8 -86 -8 -43 -1 -34 25 15 43 65 24 401 16 517 -13z m-5150 -22 c0 -55 13 -75 68 -104 l47 -24 -40 -1 c-57 -1 -86 -19 -115 -70 l-25 -45 -8 55 c-9 62 -16 71 -72 99 l-40 19 50 7 c55 8 87 31 105 76 17 41 30 36 30 -12z m7860 21 c0 -5 -4 -10 -10 -10 -5 0 -10 5 -10 10 0 6 5 10 10 10 6 0 10 -4 10 -10z m-10899 -21 c5 -8 9 -28 9 -45 0 -29 -3 -32 -41 -38 -22 -4 -45 -4 -50 0 -22 13 31 104 58 100 8 -1 19 -9 24 -17z m10379 11 c0 -5 -4 -10 -10 -10 -5 0 -10 5 -10 10 0 6 5 10 10 10 6 0 10 -4 10 -10z m400 -42 c12 -57 34 -90 56 -81 8 3 14 -1 14 -10 0 -9 13 -18 30 -22 42 -9 37 -21 -10 -28 -23 -3 -52 -13 -66 -22 -23 -15 -32 -30 -59 -100 -8 -22 -10 -18 -20 37 -8 50 -45 91 -94 108 -46 15 -45 30 2 30 53 0 93 32 114 89 10 28 19 51 20 51 1 0 6 -23 13 -52z m-7710 22 c0 -5 -4 -10 -10 -10 -5 0 -10 5 -10 10 0 6 5 10 10 10 6 0 10 -4 10 -10z m6890 0 c0 -5 -2 -10 -4 -10 -3 0 -8 5 -11 10 -3 6 -1 10 4 10 6 0 11 -4 11 -10z m485 0 c3 -5 1 -10 -4 -10 -6 0 -11 5 -11 10 0 6 2 10 4 10 3 0 8 -4 11 -10z m-8316 -27 c32 -18 51 -58 35 -73 -5 -5 -30 -11 -55 -15 -64 -9 -77 8 -48 64 11 23 25 41 29 41 5 0 22 -8 39 -17z m8386 7 c3 -5 1 -10 -4 -10 -6 0 -11 5 -11 10 0 6 2 10 4 10 3 0 8 -4 11 -10z m-4125 -20 c134 -12 212 -28 204 -42 -4 -6 -88 -7 -228 -2 -242 7 -305 0 -456 -51 l-75 -25 50 50 c37 38 56 50 80 50 16 0 50 7 75 14 54 18 193 20 350 6z m4195 1 c3 -5 1 -12 -5 -16 -5 -3 -10 1 -10 9 0 18 6 21 15 7z m285 -1 c0 -5 -4 -10 -10 -10 -5 0 -10 5 -10 10 0 6 5 10 10 10 6 0 10 -4 10 -10z m-960 -10 c0 -5 -5 -10 -11 -10 -5 0 -7 5 -4 10 3 6 8 10 11 10 2 0 4 -4 4 -10z m-8341 -18 c13 -25 -5 -52 -34 -52 -29 0 -39 14 -31 46 8 29 50 34 65 6z m9091 4 c0 -3 -4 -8 -10 -11 -5 -3 -10 -1 -10 4 0 6 5 11 10 11 6 0 10 -2 10 -4z m-800 -46 c0 -5 -2 -10 -4 -10 -3 0 -8 5 -11 10 -3 6 -1 10 4 10 6 0 11 -4 11 -10z m403 -21 c-8 -8 -16 -8 -30 0 -16 9 -14 10 12 11 21 0 26 -3 18 -11z m-453 -29 c0 -5 -5 -10 -11 -10 -5 0 -7 5 -4 10 3 6 8 10 11 10 2 0 4 -4 4 -10z m-6900 -10 c0 -5 -4 -10 -10 -10 -5 0 -10 5 -10 10 0 6 5 10 10 10 6 0 10 -4 10 -10z m-60 -20 c0 -5 -4 -10 -10 -10 -5 0 -10 5 -10 10 0 6 5 10 10 10 6 0 10 -4 10 -10z m-482 -22 c2 -9 -7 -27 -19 -39 -21 -21 -23 -21 -36 -4 -16 24 -17 52 0 59 23 9 52 1 55 -16z m8091 -7 c13 -24 2 -70 -20 -82 -32 -17 -105 34 -93 65 15 40 95 52 113 17z m-8133 -67 c14 -4 43 -4 65 -1 38 5 40 4 25 -12 -9 -10 -13 -21 -9 -26 5 -4 0 -5 -9 -2 -12 4 -24 -3 -39 -21 -18 -23 -20 -35 -15 -82 l6 -55 -23 30 c-44 60 -53 64 -112 62 -30 -1 -55 -1 -55 0 0 1 19 20 42 42 41 38 42 41 40 97 l-2 58 30 -42 c16 -23 41 -44 56 -48z m158 60 c22 -21 20 -29 -8 -47 -22 -15 -25 -15 -41 3 -36 39 12 82 49 44z m7276 6 c0 -5 -2 -10 -4 -10 -3 0 -8 5 -11 10 -3 6 -1 10 4 10 6 0 11 -4 11 -10z m-7040 -10 c0 -5 -2 -10 -4 -10 -3 0 -8 5 -11 10 -3 6 -1 10 4 10 6 0 11 -4 11 -10z m4450 -2 c-109 -46 -195 -96 -260 -152 -41 -36 -96 -84 -122 -106 -56 -49 -60 -42 -17 24 34 51 133 135 212 181 55 31 150 64 187 64 l25 0 -25 -11z m563 0 c79 -42 192 -177 252 -302 55 -115 41 -110 -41 14 -49 74 -110 148 -170 208 -85 84 -98 111 -41 80z m-6463 -147 c13 -9 33 -24 44 -34 21 -18 21 -18 -11 -12 -51 10 -97 -10 -127 -55 -15 -22 -28 -40 -30 -40 -2 0 -2 17 1 38 5 43 -11 93 -29 90 -7 -2 -12 3 -11 9 2 7 -11 20 -27 28 -39 20 -38 29 3 22 58 -9 87 3 121 50 l31 45 5 -62 c4 -52 9 -65 30 -79z m6097 127 c-4 -7 -22 -53 -42 -103 -20 -49 -41 -101 -46 -114 -6 -15 -13 -21 -19 -15 -18 18 38 181 78 227 17 20 37 23 29 5z m200 -59 c42 -106 83 -444 60 -498 -12 -30 -12 -28 -42 222 -14 117 -31 196 -72 321 -4 14 -1 17 13 14 12 -2 27 -23 41 -59z m764 31 c44 -16 110 -46 146 -66 75 -42 230 -157 321 -238 34 -31 69 -56 77 -56 14 0 31 -58 23 -81 -2 -6 -63 40 -137 102 -225 194 -369 286 -523 337 -32 10 -55 22 -51 25 14 14 65 6 144 -23z m-6736 -60 c0 -27 -22 -39 -31 -16 -8 22 3 49 19 43 6 -2 12 -14 12 -27z m7917 -6 c37 -33 43 -35 89 -30 27 3 58 10 69 16 28 15 25 7 -15 -46 -39 -51 -42 -72 -20 -134 8 -23 15 -45 15 -47 0 -3 -19 11 -41 31 -52 44 -83 51 -138 31 -24 -8 -46 -14 -48 -12 -2 2 3 17 12 33 8 16 15 25 15 19 0 -5 10 1 20 14 24 28 25 69 5 118 -24 56 -18 57 37 7z m158 22 c0 -3 -4 -8 -10 -11 -5 -3 -10 -1 -10 4 0 6 5 11 10 11 6 0 10 -2 10 -4z m-3306 -109 c-173 -191 -283 -542 -323 -1037 -8 -96 -8 -126 2 -132 15 -9 93 -10 174 -2 l61 7 7 206 c7 220 14 265 45 303 23 28 24 26 4 -87 -8 -49 -18 -165 -21 -257 l-6 -168 109 0 c60 0 133 3 162 6 l52 7 0 41 c0 64 37 298 61 387 20 74 57 139 80 139 4 0 -1 -21 -11 -46 -31 -72 -58 -191 -84 -365 l-23 -162 109 7 c164 11 150 -5 177 192 29 211 54 336 88 439 46 141 126 285 159 285 23 0 17 -23 -30 -111 -25 -46 -59 -126 -76 -178 -29 -89 -120 -533 -120 -586 0 -24 2 -25 63 -25 55 0 131 9 204 25 48 11 79 53 138 189 32 75 60 135 61 133 2 -2 14 -62 28 -133 28 -154 44 -190 93 -211 44 -18 53 -9 53 57 0 45 -15 195 -26 260 -5 31 -4 33 9 20 26 -28 38 -84 43 -205 3 -66 7 -130 10 -142 4 -23 34 -35 115 -46 l36 -5 12 81 c24 178 33 385 27 615 -4 142 -3 231 2 228 33 -20 54 -293 41 -531 -7 -142 -31 -356 -44 -392 -5 -14 47 -27 74 -18 35 11 51 52 97 247 25 106 46 194 48 196 6 5 16 -75 26 -205 18 -224 37 -263 139 -283 80 -15 118 -13 127 8 4 9 10 130 13 267 4 242 4 248 17 180 18 -96 28 -326 17 -402 l-10 -62 69 -12 c96 -17 116 -9 154 69 42 83 63 188 73 362 8 134 0 337 -15 385 -6 16 -4 18 7 9 19 -16 98 8 126 38 11 13 27 46 35 73 l15 50 12 -42 c6 -24 16 -43 22 -43 6 0 8 -4 4 -9 -9 -15 45 -51 87 -57 21 -4 38 -10 38 -14 0 -4 -19 -12 -42 -19 -58 -17 -84 -44 -99 -102 -7 -27 -15 -46 -18 -44 -2 3 -12 26 -20 52 -18 52 -49 79 -100 89 -31 7 -34 5 -26 -12 12 -31 21 -279 13 -404 -8 -125 -34 -242 -73 -328 l-25 -54 58 7 c173 20 236 52 248 124 15 92 14 93 119 -126 55 -114 121 -240 147 -279 101 -156 251 -267 429 -318 53 -15 585 -97 624 -95 13 0 32 18 52 49 30 48 31 50 13 72 -60 78 -86 192 -70 310 20 143 58 241 154 395 66 107 108 153 140 153 30 0 76 -36 76 -59 0 -10 -21 -73 -46 -142 -53 -145 -54 -180 -7 -280 39 -84 138 -240 147 -232 16 16 1 62 -59 179 -78 153 -80 171 -30 320 19 57 35 114 35 126 0 32 44 84 93 107 25 12 73 24 109 28 l65 6 16 -60 c21 -72 21 -128 2 -301 -19 -184 -43 -217 -104 -147 -35 40 -37 62 -20 162 22 124 -13 208 -84 201 -42 -4 -48 -32 -10 -50 l28 -13 3 -144 c2 -125 5 -147 23 -172 31 -44 176 -148 271 -195 145 -70 232 -68 348 7 34 21 63 39 67 39 10 0 -5 -192 -19 -235 -8 -25 -34 -62 -71 -99 -55 -56 -58 -60 -48 -89 6 -16 11 -45 11 -63 0 -27 4 -34 20 -35 39 -3 81 -9 575 -83 275 -41 526 -82 558 -91 138 -37 288 -125 398 -234 240 -239 330 -610 227 -931 -28 -88 -87 -202 -140 -275 -24 -33 -315 -325 -646 -648 l-602 -589 163 -78 c89 -43 188 -91 220 -107 36 -17 59 -35 62 -48 8 -34 24 -203 35 -355 24 -337 50 -484 181 -1055 144 -632 147 -703 44 -1297 -57 -331 -91 -480 -119 -523 -9 -14 -31 -34 -48 -45 -36 -22 -166 -55 -297 -76 -134 -22 -504 -29 -685 -15 -82 7 -151 10 -154 7 -3 -3 13 -117 36 -254 54 -322 56 -340 42 -458 -24 -206 -113 -394 -255 -539 -95 -97 -179 -156 -295 -206 -138 -59 -207 -73 -360 -73 -227 -1 -286 21 -775 280 -71 38 -220 116 -330 174 -180 95 -202 109 -217 142 -18 37 -60 179 -55 184 1 2 92 -44 202 -102 110 -58 272 -143 360 -189 88 -46 237 -124 331 -174 196 -103 297 -141 404 -150 367 -30 692 188 802 539 38 124 33 276 -20 580 -23 135 -47 254 -51 266 -7 16 -22 23 -58 28 -96 13 -342 79 -533 142 -293 98 -454 183 -668 352 -126 99 -189 168 -306 333 -222 312 -432 475 -706 546 -121 31 -316 35 -457 8 -85 -16 -92 -19 -103 -46 -14 -32 -43 -38 -76 -15 -17 13 -27 12 -79 -6 -101 -33 -224 -95 -326 -163 -76 -50 -99 -71 -104 -93 -9 -44 11 -81 76 -143 63 -61 71 -85 39 -114 -18 -16 -26 -17 -74 -6 l-55 12 -11 57 c-7 31 -17 81 -23 111 l-12 54 -95 -97 c-112 -114 -191 -168 -297 -204 -73 -25 -89 -26 -263 -26 -155 0 -197 4 -260 21 -283 78 -516 231 -880 578 -229 218 -407 337 -572 381 -39 10 -48 10 -48 0 0 -21 -33 -43 -73 -49 -53 -8 -62 -18 -86 -96 -23 -76 -53 -121 -81 -121 -23 0 -50 36 -50 66 0 12 -8 32 -19 45 -16 20 -30 24 -92 27 -41 2 -80 9 -86 14 -27 22 -13 55 43 107 31 29 54 55 50 58 -11 11 -245 -20 -352 -47 -157 -39 -346 -133 -493 -243 -101 -75 -266 -230 -274 -256 -4 -14 -73 -408 -154 -876 -137 -790 -147 -859 -147 -980 -1 -109 3 -142 22 -205 64 -203 194 -359 385 -461 31 -17 67 -32 80 -33 12 -2 38 -11 59 -19 47 -21 183 -34 278 -26 41 4 111 19 155 34 47 15 361 175 763 386 376 197 684 359 686 359 5 0 23 -49 40 -106 l14 -52 -666 -350 c-367 -193 -689 -360 -715 -371 -110 -47 -205 -65 -352 -65 -101 0 -157 4 -202 16 -405 111 -665 403 -713 801 -15 128 -16 123 140 1030 71 418 130 761 130 763 0 1 -63 -45 -139 -104 -315 -242 -647 -422 -969 -526 -238 -77 -416 -104 -732 -113 -341 -9 -500 11 -829 107 -193 56 -285 95 -331 141 -26 27 -30 38 -30 85 0 72 48 214 161 472 194 446 351 684 774 1177 229 266 323 383 441 546 86 121 93 133 80 151 -20 28 -9 48 25 48 33 0 62 40 169 225 106 183 280 556 280 599 0 7 -30 41 -68 77 -37 35 -242 235 -455 443 -308 301 -400 397 -443 462 -95 143 -142 285 -151 455 -21 389 184 735 530 894 102 47 162 61 417 99 129 19 226 38 228 45 2 6 10 11 18 11 9 0 12 -4 9 -10 -4 -6 5 -8 22 -5 27 5 512 75 519 75 2 0 3 10 1 23 -2 19 2 22 28 20 16 -1 34 -9 40 -17 16 -21 1668 220 1770 259 85 32 141 64 219 124 106 83 156 159 326 503 l156 318 11 -94 c6 -52 16 -103 22 -115 12 -21 66 -41 114 -41 l27 0 0 78 c0 183 41 507 66 532 14 14 15 11 10 -25 -27 -185 -38 -312 -39 -437 -1 -81 2 -150 5 -154 10 -9 299 -18 340 -10 l36 6 6 128 c23 429 101 725 252 953 54 82 141 166 156 151 8 -8 -3 -27 -38 -65z m-4174 3 c0 -5 -2 -10 -4 -10 -3 0 -8 5 -11 10 -3 6 -1 10 4 10 6 0 11 -4 11 -10z m-1105 -10 c3 -5 1 -10 -4 -10 -6 0 -11 5 -11 10 0 6 2 10 4 10 3 0 8 -4 11 -10z m195 -20 c0 -5 -4 -10 -10 -10 -5 0 -10 5 -10 10 0 6 5 10 10 10 6 0 10 -4 10 -10z m12243 -29 c-2 -46 -15 -56 -55 -45 -45 13 -47 39 -6 64 45 28 63 22 61 -19z m-12473 -11 c0 -5 -2 -10 -4 -10 -3 0 -8 5 -11 10 -3 6 -1 10 4 10 6 0 11 -4 11 -10z m8340 -30 c0 -5 -4 -10 -10 -10 -5 0 -10 5 -10 10 0 6 5 10 10 10 6 0 10 -4 10 -10z m-7360 -10 c0 -5 -5 -10 -11 -10 -5 0 -7 5 -4 10 3 6 8 10 11 10 2 0 4 -4 4 -10z m-580 -20 c0 -5 -2 -10 -4 -10 -3 0 -8 5 -11 10 -3 6 -1 10 4 10 6 0 11 -4 11 -10z m7875 0 c3 -5 1 -10 -4 -10 -6 0 -11 5 -11 10 0 6 2 10 4 10 3 0 8 -4 11 -10z m-7572 -47 c9 -55 30 -78 82 -93 51 -14 49 -21 -12 -39 -44 -12 -62 -34 -78 -96 l-7 -30 -11 30 c-23 68 -42 90 -93 107 l-49 16 30 8 c62 15 89 38 105 87 8 26 18 47 21 47 4 0 9 -17 12 -37z m227 33 c0 -3 -4 -8 -10 -11 -5 -3 -10 -1 -10 4 0 6 5 11 10 11 6 0 10 -2 10 -4z m-475 -16 c3 -5 1 -10 -4 -10 -6 0 -11 5 -11 10 0 6 2 10 4 10 3 0 8 -4 11 -10z m7755 -10 c0 -5 -4 -10 -10 -10 -5 0 -10 5 -10 10 0 6 5 10 10 10 6 0 10 -4 10 -10z m-8280 -10 c0 -5 -4 -10 -10 -10 -5 0 -10 5 -10 10 0 6 5 10 10 10 6 0 10 -4 10 -10z m8220 -24 c0 -3 -4 -8 -10 -11 -5 -3 -10 -1 -10 4 0 6 5 11 10 11 6 0 10 -2 10 -4z m626 -63 c-5 -12 -9 -13 -21 -3 -18 15 -19 37 -2 43 16 5 30 -20 23 -40z m-696 27 c0 -5 -5 -10 -11 -10 -5 0 -7 5 -4 10 3 6 8 10 11 10 2 0 4 -4 4 -10z m-3859 -46 c17 -15 17 -18 2 -40 -12 -19 -19 -22 -34 -13 -21 11 -26 55 -6 62 19 8 19 8 38 -9z m3799 6 c0 -5 -4 -10 -10 -10 -5 0 -10 5 -10 10 0 6 5 10 10 10 6 0 10 -4 10 -10z m-8160 -10 c0 -5 -5 -10 -11 -10 -5 0 -7 5 -4 10 3 6 8 10 11 10 2 0 4 -4 4 -10z m8090 -20 c0 -5 -5 -10 -11 -10 -5 0 -7 5 -4 10 3 6 8 10 11 10 2 0 4 -4 4 -10z m4124 -26 c7 -19 -10 -44 -30 -44 -20 0 -36 34 -22 48 17 17 45 15 52 -4z m-4184 -14 c0 -5 -4 -10 -10 -10 -5 0 -10 5 -10 10 0 6 5 10 10 10 6 0 10 -4 10 -10z m-8100 -50 c0 -5 -5 -10 -11 -10 -5 0 -7 5 -4 10 3 6 8 10 11 10 2 0 4 -4 4 -10z m3228 -52 c7 -7 12 -22 12 -34 0 -26 -48 -44 -61 -22 -10 16 -12 52 -2 61 10 11 38 8 51 -5z m4737 -118 c3 -5 1 -10 -4 -10 -6 0 -11 5 -11 10 0 6 2 10 4 10 3 0 8 -4 11 -10z m780 -25 c31 -30 31 -49 1 -80 -34 -34 -92 -43 -116 -19 -48 49 -15 124 55 124 25 0 44 -8 60 -25z m-6944 4 c16 -8 18 -13 8 -25 -22 -27 -55 -12 -43 20 7 19 9 19 35 5z m893 -23 c39 -35 34 -64 -11 -71 -21 -4 -46 -9 -55 -11 -19 -6 -38 23 -30 46 7 22 44 60 58 60 7 0 24 -11 38 -24z m1271 -16 c0 -32 -30 -39 -45 -10 -14 26 -4 42 23 38 16 -2 22 -10 22 -28z m3975 -10 c0 -5 -4 -10 -10 -10 -5 0 -10 5 -10 10 0 6 5 10 10 10 6 0 10 -4 10 -10z m-7205 -10 c3 -5 1 -10 -4 -10 -6 0 -11 5 -11 10 0 6 2 10 4 10 3 0 8 -4 11 -10z m-30 -60 c3 -5 1 -10 -4 -10 -6 0 -11 5 -11 10 0 6 2 10 4 10 3 0 8 -4 11 -10z m7205 0 c0 -5 -4 -10 -10 -10 -5 0 -10 5 -10 10 0 6 5 10 10 10 6 0 10 -4 10 -10z m-7268 -27 c18 -15 35 -28 37 -30 3 -2 -5 -13 -16 -26 -11 -12 -19 -27 -16 -33 2 -6 -11 -11 -31 -12 -27 -1 -35 3 -40 21 -10 38 -7 95 7 100 21 9 25 8 59 -20z m-943 -108 c20 3 47 9 60 12 22 6 22 5 -8 -37 -36 -50 -39 -81 -11 -135 11 -21 18 -40 16 -42 -2 -2 -22 15 -45 38 -39 39 -44 41 -89 36 -26 -2 -56 -8 -67 -13 -15 -6 -12 2 14 34 29 37 32 48 28 85 -2 23 -8 53 -12 67 -8 23 -5 22 34 -13 39 -35 47 -38 80 -32z m9786 -65 c0 -33 -4 -46 -16 -48 -22 -4 -79 45 -79 68 0 23 15 29 60 27 35 -2 35 -3 35 -47z m-8865 20 c0 -5 -2 -10 -4 -10 -3 0 -8 5 -11 10 -3 6 -1 10 4 10 6 0 11 -4 11 -10z m7200 -20 c0 -5 -4 -10 -10 -10 -5 0 -10 5 -10 10 0 6 5 10 10 10 6 0 10 -4 10 -10z m2464 -50 c18 -18 12 -338 -9 -455 -28 -163 -55 -190 -140 -141 -50 30 -51 32 -30 56 48 53 78 423 43 519 l-17 44 71 -6 c39 -3 76 -11 82 -17z m-2494 -20 c0 -5 -4 -10 -10 -10 -5 0 -10 5 -10 10 0 6 5 10 10 10 6 0 10 -4 10 -10z m2679 -21 l44 -19 -6 -203 c-8 -277 -27 -349 -108 -389 -38 -20 -94 -24 -104 -8 -4 6 5 24 19 41 34 40 45 83 54 209 7 111 0 338 -13 379 -8 23 -7 24 31 17 21 -4 59 -16 83 -27z m-6326 -29 c15 -13 -8 -75 -29 -78 -14 -2 -24 8 -37 38 -9 23 -15 46 -11 51 6 11 63 3 77 -11z m4747 -22 c52 -85 -10 -165 -83 -108 -62 49 -33 137 46 139 9 1 26 -14 37 -31z m-1130 2 c0 -5 -4 -10 -10 -10 -5 0 -10 5 -10 10 0 6 5 10 10 10 6 0 10 -4 10 -10z m2900 -43 c59 -57 81 -150 60 -253 -18 -86 -49 -140 -100 -174 -24 -16 -46 -27 -48 -25 -2 2 2 54 9 116 11 106 7 313 -7 366 -6 21 -4 22 23 12 17 -5 45 -24 63 -42z m-10120 29 c0 -3 -4 -8 -10 -11 -5 -3 -10 -1 -10 4 0 6 5 11 10 11 6 0 10 -2 10 -4z m7190 -50 c0 -3 -4 -8 -10 -11 -5 -3 -10 -1 -10 4 0 6 5 11 10 11 6 0 10 -2 10 -4z m-7220 -10 c0 -3 -4 -8 -10 -11 -5 -3 -10 -1 -10 4 0 6 5 11 10 11 6 0 10 -2 10 -4z m7190 -56 c0 -5 -4 -10 -10 -10 -5 0 -10 5 -10 10 0 6 5 10 10 10 6 0 10 -4 10 -10z m-5102 -46 c2 -11 -4 -27 -12 -34 -13 -10 -20 -9 -41 4 -43 28 -29 57 25 53 17 -1 26 -9 28 -23z m-2663 -4 c3 -5 1 -10 -4 -10 -6 0 -11 5 -11 10 0 6 2 10 4 10 3 0 8 -4 11 -10z m8943 -26 c31 -20 28 -30 -18 -60 -39 -26 -41 -27 -55 -8 -19 25 -29 60 -21 80 7 18 56 12 94 -12z m-1208 6 c0 -5 -4 -10 -10 -10 -5 0 -10 5 -10 10 0 6 5 10 10 10 6 0 10 -4 10 -10z m-6935 -85 c0 -25 -4 -31 -26 -33 -20 -2 -28 2 -32 19 -8 29 10 51 37 47 16 -2 21 -10 21 -33z m-705 5 c0 -5 -4 -10 -10 -10 -5 0 -10 5 -10 10 0 6 5 10 10 10 6 0 10 -4 10 -10z m316 -155 c-23 -53 -20 -77 14 -123 17 -23 28 -42 26 -42 -2 0 -20 7 -39 15 -52 22 -85 19 -124 -11 -41 -31 -50 -27 -29 15 24 46 20 82 -14 121 -40 47 -37 52 13 30 57 -26 77 -25 123 9 21 15 40 27 42 26 2 -2 -4 -20 -12 -40z m9000 1 c15 -12 17 -18 8 -33 -15 -24 -58 -24 -62 0 -4 18 14 47 27 47 4 0 16 -6 27 -14z m-7196 -52 c0 -8 -4 -12 -10 -9 -5 3 -10 10 -10 16 0 5 5 9 10 9 6 0 10 -7 10 -16z m-2812 -51 c-3 -31 -34 -44 -44 -19 -9 24 3 46 26 46 17 0 21 -5 18 -27z m-329 -147 c8 -10 9 -16 1 -21 -13 -8 -30 3 -30 21 0 18 14 18 29 0z m4212 -42 c17 -21 0 -49 -31 -49 -31 0 -48 28 -31 49 8 9 21 16 31 16 10 0 23 -7 31 -16z m-1232 -28 c4 -22 -23 -46 -52 -46 -33 0 -60 43 -40 64 4 4 25 6 48 4 30 -2 41 -8 44 -22z m511 -196 c0 -34 -14 -38 -42 -13 -27 25 -22 43 12 43 27 0 30 -3 30 -30z m-3572 -524 c3 -12 -1 -17 -10 -14 -7 3 -15 13 -16 22 -3 12 1 17 10 14 7 -3 15 -13 16 -22z m734 -683 c25 -22 23 -46 -8 -77 -32 -31 -59 -33 -74 -7 -16 30 -12 59 10 81 24 24 47 25 72 3z m-142 -102 c0 -22 -29 -36 -43 -22 -15 15 0 41 23 41 13 0 20 -7 20 -19z m540 -206 c15 -19 0 -62 -26 -72 -19 -7 -64 13 -64 29 0 14 49 57 66 58 6 0 17 -7 24 -15z m249 -130 c9 -9 -10 -36 -31 -44 -30 -12 -41 0 -32 33 6 24 10 27 33 21 14 -4 28 -8 30 -10z m-569 -145 c0 -5 -4 -10 -10 -10 -5 0 -10 5 -10 10 0 6 5 10 10 10 6 0 10 -4 10 -10z m12808 -46 c4 -27 -26 -40 -46 -20 -21 20 -8 48 20 44 14 -2 24 -11 26 -24z m-12203 -64 c3 -5 -2 -21 -10 -34 -16 -24 -18 -24 -41 -9 -40 26 -28 48 28 52 9 0 20 -3 23 -9z m-553 -205 c0 -5 -5 -11 -11 -13 -6 -2 -11 4 -11 13 0 9 5 15 11 13 6 -2 11 -8 11 -13z m468 -5 c11 -11 20 -24 20 -29 0 -16 -25 -28 -58 -29 -41 -1 -58 25 -36 56 19 27 48 28 74 2z m-249 -480 c14 0 10 -46 -5 -59 -24 -20 -66 12 -66 49 0 10 30 19 48 14 8 -2 18 -4 23 -4z m-161 -45 c0 -19 -20 -29 -32 -17 -15 15 -2 43 17 36 8 -3 15 -12 15 -19z m11524 -251 c9 -22 -11 -44 -40 -44 -18 0 -24 5 -24 23 0 13 3 27 7 30 13 13 51 7 57 -9z m-8213 -2176 c8 -7 27 -30 43 -50 30 -42 47 -46 120 -26 36 9 48 9 60 -1 24 -20 20 -44 -14 -86 -35 -45 -38 -73 -9 -109 15 -19 19 -34 15 -52 -9 -33 -29 -39 -78 -23 -53 17 -76 15 -103 -11 -13 -12 -25 -17 -28 -13 -21 34 -49 174 -54 271 -6 107 -5 112 14 112 10 0 26 -6 34 -12z m1431 -125 c9 -10 19 -28 22 -39 12 -40 44 -58 95 -56 43 2 49 -1 60 -25 11 -23 9 -29 -13 -52 -46 -48 -50 -78 -21 -166 30 -92 30 -93 8 -117 -23 -26 -50 -22 -90 12 -41 36 -51 37 -94 5 -67 -48 -96 -60 -124 -47 -20 9 -25 19 -25 49 0 21 4 54 10 73 13 46 -2 90 -40 119 -52 38 -31 83 43 96 57 11 87 41 94 95 3 25 10 51 16 58 14 17 41 15 59 -5z m3233 -150 c11 -11 15 -25 11 -42 -23 -97 -23 -97 37 -142 29 -22 35 -50 15 -67 -7 -5 -34 -12 -59 -16 -54 -8 -80 -32 -105 -96 -23 -60 -61 -110 -84 -110 -28 0 -50 28 -50 65 0 55 -27 78 -101 83 -70 5 -99 22 -99 58 0 22 35 55 104 98 28 18 28 19 22 82 -6 62 -6 64 20 76 23 11 33 9 75 -15 56 -31 91 -34 110 -10 15 17 69 53 81 53 4 0 14 -7 23 -17z m-3914 -259 c10 -12 10 -24 1 -60 -19 -69 -16 -83 23 -105 66 -39 55 -99 -18 -99 -59 0 -80 -19 -112 -97 -15 -38 -34 -76 -42 -85 -37 -42 -93 -6 -93 59 0 42 -27 59 -104 66 -74 7 -106 33 -88 71 6 14 28 36 49 49 66 42 78 62 78 131 l0 61 33 3 c24 2 46 -5 73 -22 21 -14 45 -26 52 -26 8 0 34 16 58 35 48 38 70 43 90 19z m4636 -488 c-27 -70 -30 -97 -14 -131 9 -18 30 -44 46 -56 44 -32 29 -40 -35 -18 -65 23 -83 19 -141 -28 -24 -19 -43 -32 -43 -30 0 2 7 24 15 47 22 62 19 83 -20 134 -19 26 -35 48 -35 51 0 2 19 -2 41 -10 66 -24 95 -19 137 20 39 36 58 44 49 21z m-3859 -32 c56 -33 104 -35 135 -6 50 47 90 17 87 -67 -1 -31 -2 -62 -1 -69 0 -7 26 -24 56 -39 62 -31 72 -46 50 -79 -11 -18 -25 -24 -51 -24 -40 0 -84 -36 -84 -70 0 -69 -56 -81 -95 -20 -13 21 -33 44 -44 50 -11 5 -60 10 -110 10 -82 0 -91 2 -105 22 -24 34 -20 46 29 80 50 35 54 50 30 118 -16 44 -20 102 -8 113 14 15 69 6 111 -19z m2180 -6 c7 -7 12 -21 12 -31 0 -24 -58 -99 -71 -92 -5 4 -16 31 -25 62 -13 46 -14 57 -3 64 20 13 73 11 87 -3z m1037 -48 c26 -52 36 -57 109 -62 46 -4 68 -28 48 -55 -60 -85 -62 -97 -31 -196 36 -115 -1 -158 -83 -98 -23 17 -48 31 -56 31 -8 0 -31 -13 -52 -30 -100 -79 -161 -53 -132 57 20 72 15 91 -28 134 -22 22 -40 43 -40 47 0 26 35 52 84 62 65 13 77 26 84 88 6 56 16 72 48 72 18 0 29 -11 49 -50z m-8750 23 c-33 -78 -36 -95 -20 -119 8 -13 13 -24 9 -24 -3 0 6 -16 21 -36 16 -20 22 -34 14 -31 -8 3 -37 13 -66 23 l-52 17 -51 -31 c-28 -18 -53 -32 -55 -32 -2 0 5 21 17 46 24 55 19 92 -18 141 -14 19 -24 36 -22 39 3 2 26 -5 52 -17 55 -24 87 -20 131 16 36 29 50 32 40 8z m65 -153 c0 -5 -4 -10 -10 -10 -5 0 -10 5 -10 10 0 6 5 10 10 10 6 0 10 -4 10 -10z m70 -20 c0 -5 -4 -10 -10 -10 -5 0 -10 5 -10 10 0 6 5 10 10 10 6 0 10 -4 10 -10z m70 -20 c0 -5 -4 -10 -10 -10 -5 0 -10 5 -10 10 0 6 5 10 10 10 6 0 10 -4 10 -10z m9300 0 c0 -5 -4 -10 -10 -10 -5 0 -10 5 -10 10 0 6 5 10 10 10 6 0 10 -4 10 -10z m-9230 -10 c0 -5 -5 -10 -11 -10 -5 0 -7 5 -4 10 3 6 8 10 11 10 2 0 4 -4 4 -10z m75 -20 c3 -5 1 -10 -4 -10 -6 0 -11 5 -11 10 0 6 2 10 4 10 3 0 8 -4 11 -10z m8875 0 c0 -5 -4 -10 -10 -10 -5 0 -10 5 -10 10 0 6 5 10 10 10 6 0 10 -4 10 -10z m-8166 -98 c15 -11 50 -23 78 -27 51 -7 52 -8 26 -21 -15 -8 -41 -27 -59 -43 -26 -24 -32 -39 -38 -87 l-6 -59 -19 42 c-28 64 -55 83 -121 90 l-58 6 46 24 c57 29 73 52 82 123 l8 55 17 -41 c10 -22 30 -50 44 -62z m-634 78 c0 -5 -4 -10 -10 -10 -5 0 -10 5 -10 10 0 6 5 10 10 10 6 0 10 -4 10 -10z m9134 -11 c-3 -5 -10 -7 -15 -3 -5 3 -7 10 -3 15 3 5 10 7 15 3 5 -3 7 -10 3 -15z m-9064 -9 c0 -5 -4 -10 -10 -10 -5 0 -10 5 -10 10 0 6 5 10 10 10 6 0 10 -4 10 -10z m70 -10 c0 -5 -4 -10 -10 -10 -5 0 -10 5 -10 10 0 6 5 10 10 10 6 0 10 -4 10 -10z m70 -20 c0 -5 -4 -10 -10 -10 -5 0 -10 5 -10 10 0 6 5 10 10 10 6 0 10 -4 10 -10z m8560 0 c0 -5 -2 -10 -4 -10 -3 0 -8 5 -11 10 -3 6 -1 10 4 10 6 0 11 -4 11 -10z m420 -10 c0 -5 -4 -10 -10 -10 -5 0 -10 5 -10 10 0 6 5 10 10 10 6 0 10 -4 10 -10z m-8910 -10 c0 -5 -4 -10 -10 -10 -5 0 -10 5 -10 10 0 6 5 10 10 10 6 0 10 -4 10 -10z m80 -14 c0 -3 -4 -8 -10 -11 -5 -3 -10 -1 -10 4 0 6 5 11 10 11 6 0 10 -2 10 -4z m65 -16 c3 -5 1 -10 -4 -10 -6 0 -11 5 -11 10 0 6 2 10 4 10 3 0 8 -4 11 -10z m8825 -4 c0 -11 -19 -15 -25 -6 -3 5 1 10 9 10 9 0 16 -2 16 -4z m-8750 -16 c0 -5 -4 -10 -10 -10 -5 0 -10 5 -10 10 0 6 5 10 10 10 6 0 10 -4 10 -10z m8250 6 c0 -3 -4 -8 -10 -11 -5 -3 -10 -1 -10 4 0 6 5 11 10 11 6 0 10 -2 10 -4z m-1800 -36 c51 -14 156 -59 262 -112 156 -79 178 -93 188 -121 31 -83 68 -197 66 -197 -2 0 -107 54 -232 120 -290 152 -373 180 -533 180 -133 0 -246 -36 -449 -141 l-175 -91 -31 36 c-17 20 -46 47 -64 60 l-33 24 168 88 c304 160 390 185 608 181 110 -3 158 -8 225 -27z m2350 -10 c0 -5 -4 -10 -10 -10 -5 0 -10 5 -10 10 0 6 5 10 10 10 6 0 10 -4 10 -10z m-580 -24 c0 -3 -4 -8 -10 -11 -5 -3 -10 -1 -10 4 0 6 5 11 10 11 6 0 10 -2 10 -4z m-7980 -26 c0 -5 -4 -10 -10 -10 -5 0 -10 5 -10 10 0 6 5 10 10 10 6 0 10 -4 10 -10z m8610 0 c0 -5 -5 -10 -11 -10 -5 0 -7 5 -4 10 3 6 8 10 11 10 2 0 4 -4 4 -10z m-4641 -24 c15 -8 33 -22 40 -30 19 -23 74 -20 96 4 22 24 58 26 76 4 10 -12 10 -25 0 -63 -15 -61 -6 -87 51 -133 24 -20 52 -52 63 -72 l20 -36 -22 -22 -22 -22 -73 49 c-88 58 -225 164 -254 196 -12 13 -27 41 -34 62 -10 33 -10 41 6 58 21 23 18 23 53 5z m3981 -26 c0 -5 -4 -10 -10 -10 -5 0 -10 5 -10 10 0 6 5 10 10 10 6 0 10 -4 10 -10z m720 0 c0 -5 -4 -10 -10 -10 -5 0 -10 5 -10 10 0 6 5 10 10 10 6 0 10 -4 10 -10z m-8620 -10 c0 -5 -4 -10 -10 -10 -5 0 -10 5 -10 10 0 6 5 10 10 10 6 0 10 -4 10 -10z m5024 -50 c36 -12 76 -30 90 -41 21 -17 23 -23 14 -47 -9 -23 -6 -43 16 -108 31 -93 31 -102 9 -126 -23 -25 -44 -23 -88 12 -47 38 -63 38 -111 -1 -53 -42 -83 -53 -113 -39 -22 10 -23 14 -16 68 16 114 13 132 -28 166 -20 17 -37 38 -37 47 0 26 32 48 89 60 41 9 57 17 69 39 15 27 17 27 29 10 7 -10 42 -28 77 -40z m3651 10 c3 -5 -1 -10 -10 -10 -9 0 -13 5 -10 10 3 6 8 10 10 10 2 0 7 -4 10 -10z m-8625 -14 c0 -3 -4 -8 -10 -11 -5 -3 -10 -1 -10 4 0 6 5 11 10 11 6 0 10 -2 10 -4z m7820 -6 c0 -5 -2 -10 -4 -10 -3 0 -8 5 -11 10 -3 6 -1 10 4 10 6 0 11 -4 11 -10z m870 -43 c11 -13 39 -34 63 -47 l45 -24 56 21 c31 11 56 18 56 14 0 -3 -14 -24 -30 -45 -35 -46 -38 -83 -10 -143 10 -24 17 -43 16 -43 -2 0 -27 16 -56 35 -54 36 -74 42 -85 24 -4 -5 -12 -8 -18 -6 -7 2 -25 -2 -40 -10 -41 -21 -43 -11 -8 38 38 52 39 89 6 155 -14 27 -25 50 -25 52 0 9 15 -2 30 -21z m-8650 -13 c0 -8 -5 -12 -10 -9 -6 4 -8 11 -5 16 9 14 15 11 15 -7z m6820 -9 c41 -30 79 -32 113 -5 32 26 52 25 71 -2 11 -16 12 -26 5 -41 -6 -11 -11 -35 -11 -54 0 -29 11 -45 66 -103 37 -38 66 -77 66 -88 0 -31 -29 -55 -57 -48 -12 3 -34 9 -48 12 -33 8 -48 -6 -87 -78 -60 -113 -99 -102 -137 38 -14 51 -31 66 -90 79 -39 9 -46 14 -49 36 -2 20 7 36 38 65 56 53 63 73 43 133 -8 27 -13 57 -10 65 9 24 49 19 87 -9z m940 1 c0 -11 -19 -15 -25 -6 -3 5 1 10 9 10 9 0 16 -2 16 -4z m-7710 -46 c0 -5 -4 -10 -10 -10 -5 0 -10 5 -10 10 0 6 5 10 10 10 6 0 10 -4 10 -10z m7680 -24 c0 -3 -4 -8 -10 -11 -5 -3 -10 -1 -10 4 0 6 5 11 10 11 6 0 10 -2 10 -4z m-7630 -36 c0 -5 -4 -10 -10 -10 -5 0 -10 5 -10 10 0 6 5 10 10 10 6 0 10 -4 10 -10z m7600 -34 c0 -3 -4 -8 -10 -11 -5 -3 -10 -1 -10 4 0 6 5 11 10 11 6 0 10 -2 10 -4z m-7560 -26 c0 -5 -2 -10 -4 -10 -3 0 -8 5 -11 10 -3 6 -1 10 4 10 6 0 11 -4 11 -10z m7530 -46 c0 -8 -5 -12 -10 -9 -6 4 -8 11 -5 16 9 14 15 11 15 -7z m-7480 -4 c0 -5 -4 -10 -10 -10 -5 0 -10 5 -10 10 0 6 5 10 10 10 6 0 10 -4 10 -10z m8475 -30 c3 -5 1 -10 -4 -10 -6 0 -11 5 -11 10 0 6 2 10 4 10 3 0 8 -4 11 -10z m-8470 -20 c4 -6 15 -8 26 -5 13 4 19 2 19 -8 0 -34 69 -36 128 -2 23 13 42 21 42 17 0 -4 -12 -25 -25 -47 -30 -48 -31 -76 -5 -134 11 -24 20 -45 20 -48 0 -2 -20 8 -43 22 -24 14 -56 25 -72 25 -16 0 -48 -11 -72 -25 -49 -30 -52 -25 -18 30 31 50 31 80 0 139 -13 25 -20 46 -15 46 5 0 12 -5 15 -10z m7445 -16 c0 -8 -5 -12 -10 -9 -6 4 -8 11 -5 16 9 14 15 11 15 -7z m990 -34 c0 -5 -4 -10 -10 -10 -5 0 -10 5 -10 10 0 6 5 10 10 10 6 0 10 -4 10 -10z m-1015 -29 c3 -5 1 -12 -5 -16 -5 -3 -10 1 -10 9 0 18 6 21 15 7z m985 -35 c0 -3 -4 -8 -10 -11 -5 -3 -10 -1 -10 4 0 6 5 11 10 11 6 0 10 -2 10 -4z m-1010 -41 c0 -8 -4 -15 -10 -15 -5 0 -10 7 -10 15 0 8 5 15 10 15 6 0 10 -7 10 -15z m970 -25 c0 -5 -4 -10 -10 -10 -5 0 -10 5 -10 10 0 6 5 10 10 10 6 0 10 -4 10 -10z m-8120 -10 c0 -5 -4 -10 -10 -10 -5 0 -10 5 -10 10 0 6 5 10 10 10 6 0 10 -4 10 -10z m7120 -36 c0 -8 -4 -12 -10 -9 -5 3 -10 10 -10 16 0 5 5 9 10 9 6 0 10 -7 10 -16z m-7060 -4 c0 -5 -4 -10 -10 -10 -5 0 -10 5 -10 10 0 6 5 10 10 10 6 0 10 -4 10 -10z m8030 -14 c0 -3 -4 -8 -10 -11 -5 -3 -10 -1 -10 4 0 6 5 11 10 11 6 0 10 -2 10 -4z m-7970 -26 c0 -5 -2 -10 -4 -10 -3 0 -8 5 -11 10 -3 6 -1 10 4 10 6 0 11 -4 11 -10z m6974 -31 c-3 -5 -10 -7 -15 -3 -5 3 -7 10 -3 15 3 5 10 7 15 3 5 -3 7 -10 3 -15z m-6904 -3 c0 -11 -19 -15 -25 -6 -3 5 1 10 9 10 9 0 16 -2 16 -4z m7860 -6 c0 -5 -4 -10 -10 -10 -5 0 -10 5 -10 10 0 6 5 10 10 10 6 0 10 -4 10 -10z m-7805 -29 c3 -5 1 -12 -5 -16 -5 -3 -10 1 -10 9 0 18 6 21 15 7z m4106 -2 c17 -9 20 -19 17 -82 l-3 -71 37 -21 c20 -11 39 -27 41 -37 8 -28 -20 -55 -63 -62 -54 -9 -73 -30 -99 -115 -36 -119 -97 -136 -127 -34 -11 37 -22 57 -35 60 -24 7 -60 122 -58 185 1 23 -2 60 -6 80 -14 67 22 84 97 48 59 -28 75 -25 124 20 48 45 48 44 75 29z m2713 -30 c-3 -5 -10 -7 -15 -3 -5 3 -7 10 -3 15 3 5 10 7 15 3 5 -3 7 -10 3 -15z m-6754 -9 c0 -5 -4 -10 -10 -10 -5 0 -10 5 -10 10 0 6 5 10 10 10 6 0 10 -4 10 -10z m125 -9 c3 -11 22 -34 42 -52 34 -30 40 -31 95 -26 32 3 58 1 58 -4 0 -5 -4 -9 -8 -9 -5 0 -26 -16 -48 -35 -38 -34 -39 -36 -37 -99 l1 -64 -49 50 -50 51 -62 -6 -62 -6 30 22 c69 50 77 67 73 135 -4 60 4 82 17 43z m7575 9 c0 -5 -5 -10 -11 -10 -5 0 -7 5 -4 10 3 6 8 10 11 10 2 0 4 -4 4 -10z m-7640 -40 c0 -5 -5 -10 -11 -10 -5 0 -7 5 -4 10 3 6 8 10 11 10 2 0 4 -4 4 -10z m6670 -9 c0 -6 -4 -13 -10 -16 -5 -3 -10 1 -10 9 0 9 5 16 10 16 6 0 10 -4 10 -9z m940 -21 c0 -5 -4 -10 -10 -10 -5 0 -10 5 -10 10 0 6 5 10 10 10 6 0 10 -4 10 -10z m-5846 -159 c9 -10 32 -27 51 -37 19 -10 35 -21 35 -24 0 -3 -25 -6 -55 -6 -47 0 -59 -4 -85 -29 -17 -16 -34 -42 -38 -58 -12 -48 -24 -35 -25 30 -2 68 -23 101 -78 123 -44 19 -35 30 24 30 63 0 89 16 119 73 l22 42 7 -63 c3 -36 13 -70 23 -81z m4821 92 c3 -16 14 -36 22 -45 9 -10 12 -18 8 -18 -4 0 0 -9 10 -20 9 -10 42 -24 71 -30 60 -13 63 -24 9 -34 -19 -4 -35 -11 -35 -15 0 -5 -9 -11 -20 -14 -22 -6 -50 -62 -50 -102 0 -34 -18 -32 -26 3 -18 73 -50 102 -128 116 -45 8 -40 16 27 40 55 21 73 43 83 104 8 48 19 54 29 15z m55 17 c0 -5 -4 -10 -10 -10 -5 0 -10 5 -10 10 0 6 5 10 10 10 6 0 10 -4 10 -10z m930 -10 c0 -5 -5 -10 -11 -10 -5 0 -7 5 -4 10 3 6 8 10 11 10 2 0 4 -4 4 -10z m-7300 -20 c0 -5 -2 -10 -4 -10 -3 0 -8 5 -11 10 -3 6 -1 10 4 10 6 0 11 -4 11 -10z m80 0 c0 -5 -4 -10 -10 -10 -5 0 -10 5 -10 10 0 6 5 10 10 10 6 0 10 -4 10 -10z m70 -10 c0 -5 -2 -10 -4 -10 -3 0 -8 5 -11 10 -3 6 -1 10 4 10 6 0 11 -4 11 -10z m80 0 c0 -5 -4 -10 -10 -10 -5 0 -10 5 -10 10 0 6 5 10 10 10 6 0 10 -4 10 -10z m70 0 c0 -5 -4 -10 -10 -10 -5 0 -10 5 -10 10 0 6 5 10 10 10 6 0 10 -4 10 -10z m70 -10 c0 -5 -4 -10 -10 -10 -5 0 -10 5 -10 10 0 6 5 10 10 10 6 0 10 -4 10 -10z m75 0 c3 -5 1 -10 -4 -10 -6 0 -11 5 -11 10 0 6 2 10 4 10 3 0 8 -4 11 -10z m75 -10 c0 -5 -4 -10 -10 -10 -5 0 -10 5 -10 10 0 6 5 10 10 10 6 0 10 -4 10 -10z m145 1 c3 -5 1 -12 -5 -16 -5 -3 -10 1 -10 9 0 18 6 21 15 7z m75 -11 c0 -5 -4 -10 -10 -10 -5 0 -10 5 -10 10 0 6 5 10 10 10 6 0 10 -4 10 -10z m6530 -10 c0 -5 -4 -10 -10 -10 -5 0 -10 5 -10 10 0 6 5 10 10 10 6 0 10 -4 10 -10z m-6230 -4 c0 -3 -4 -8 -10 -11 -5 -3 -10 -1 -10 4 0 6 5 11 10 11 6 0 10 -2 10 -4z m70 -6 c0 -5 -4 -10 -10 -10 -5 0 -10 5 -10 10 0 6 5 10 10 10 6 0 10 -4 10 -10z m74 -11 c-3 -5 -10 -7 -15 -3 -5 3 -7 10 -3 15 3 5 10 7 15 3 5 -3 7 -10 3 -15z m4681 7 c18 -13 19 -18 7 -60 -18 -70 -15 -82 28 -116 60 -48 50 -90 -21 -90 -53 0 -91 -36 -119 -110 -12 -33 -26 -63 -31 -65 -13 -8 -132 138 -168 204 l-32 60 21 21 c19 19 20 37 4 89 -7 23 24 61 50 61 13 0 34 -9 48 -19 52 -41 94 -36 147 15 27 28 40 29 66 10z m-4605 -6 c0 -5 -4 -10 -10 -10 -5 0 -10 5 -10 10 0 6 5 10 10 10 6 0 10 -4 10 -10z m5359 -65 c23 -14 52 -25 62 -25 21 0 64 -54 116 -147 l32 -58 -42 -20 c-37 -18 -44 -27 -64 -84 -24 -68 -56 -111 -81 -111 -28 0 -52 32 -52 67 0 54 -36 83 -102 83 -115 0 -129 55 -33 130 l60 47 0 62 c0 87 25 101 104 56z m-6779 -15 c0 -5 -4 -10 -10 -10 -5 0 -10 5 -10 10 0 6 5 10 10 10 6 0 10 -4 10 -10z m6630 -30 c0 -5 -7 -10 -16 -10 -8 0 -12 5 -9 10 3 6 10 10 16 10 5 0 9 -4 9 -10z m-285 -20 c3 -5 -1 -10 -9 -10 -9 0 -16 5 -16 10 0 6 4 10 9 10 6 0 13 -4 16 -10z m-6355 -20 c0 -5 -4 -10 -10 -10 -5 0 -10 5 -10 10 0 6 5 10 10 10 6 0 10 -4 10 -10z m6300 -30 c0 -5 -4 -10 -9 -10 -6 0 -13 5 -16 10 -3 6 1 10 9 10 9 0 16 -4 16 -10z m-6310 -50 c0 -5 -4 -10 -10 -10 -5 0 -10 5 -10 10 0 6 5 10 10 10 6 0 10 -4 10 -10z m6250 0 c0 -5 -4 -10 -10 -10 -5 0 -10 5 -10 10 0 6 5 10 10 10 6 0 10 -4 10 -10z m944 -123 c5 -9 16 -16 24 -15 9 2 17 -3 17 -10 0 -8 15 -22 34 -31 l34 -18 -55 -6 c-70 -7 -92 -21 -120 -74 -13 -24 -26 -43 -30 -43 -5 0 -8 20 -8 45 0 64 -17 93 -75 126 -27 16 -48 29 -45 30 3 0 28 1 55 2 63 2 98 24 127 80 l23 42 6 -55 c3 -30 9 -63 13 -73z m111 113 c3 -5 1 -10 -4 -10 -6 0 -11 5 -11 10 0 6 2 10 4 10 3 0 8 -4 11 -10z m-1119 -47 c-10 -10 -19 5 -10 18 6 11 8 11 12 0 2 -7 1 -15 -2 -18z m-6196 -13 c0 -5 -4 -10 -10 -10 -5 0 -10 5 -10 10 0 6 5 10 10 10 6 0 10 -4 10 -10z m7060 -6 c0 -8 -5 -12 -10 -9 -6 4 -8 11 -5 16 9 14 15 11 15 -7z m220 -4 c0 -5 -4 -10 -10 -10 -5 0 -10 5 -10 10 0 6 5 10 10 10 6 0 10 -4 10 -10z m-1139 -13 c-1 -12 -15 -9 -19 4 -3 6 1 10 8 8 6 -3 11 -8 11 -12z m-6151 -47 c0 -5 -5 -10 -11 -10 -5 0 -7 5 -4 10 3 6 8 10 11 10 2 0 4 -4 4 -10z m6100 0 c0 -5 -7 -10 -16 -10 -8 0 -12 5 -9 10 3 6 10 10 16 10 5 0 9 -4 9 -10z m-2160 -10 c12 -7 12 -18 3 -62 -6 -29 -7 -62 -3 -74 5 -11 36 -48 69 -81 57 -56 71 -83 53 -109 -42 -61 -188 51 -261 201 -22 44 -42 91 -46 104 -7 23 -7 23 16 7 31 -22 65 -20 96 4 28 22 50 25 73 10z m1941 -41 l38 -42 71 5 c38 3 70 4 70 3 0 -1 -21 -23 -46 -49 l-47 -46 7 -67 7 -67 -45 49 -45 48 -67 -6 c-63 -6 -66 -5 -51 11 9 9 16 22 16 27 1 6 6 10 12 10 7 0 21 12 32 27 18 24 19 33 10 83 -5 30 -7 55 -5 55 3 0 22 -19 43 -41z m159 1 c0 -5 -4 -10 -10 -10 -5 0 -10 5 -10 10 0 6 5 10 10 10 6 0 10 -4 10 -10z m-6050 -30 c0 -5 -2 -10 -4 -10 -3 0 -8 5 -11 10 -3 6 -1 10 4 10 6 0 11 -4 11 -10z m1480 -6 c0 -8 -5 -12 -10 -9 -6 4 -8 11 -5 16 9 14 15 11 15 -7z m-1499 -126 c11 -10 37 -20 57 -23 66 -11 69 -16 19 -35 -61 -23 -80 -39 -74 -61 3 -10 -1 -20 -9 -23 -8 -3 -14 -16 -14 -28 0 -51 -17 -51 -35 1 -18 57 -42 78 -95 87 -64 10 -66 15 -15 35 59 22 82 47 90 97 11 67 16 69 36 17 10 -27 28 -58 40 -67z m9 62 c0 -5 -2 -10 -4 -10 -3 0 -8 5 -11 10 -3 6 -1 10 4 10 6 0 11 -4 11 -10z m1460 0 c0 -5 -4 -10 -10 -10 -5 0 -10 5 -10 10 0 6 5 10 10 10 6 0 10 -4 10 -10z m4290 -60 c0 -5 -4 -10 -10 -10 -5 0 -10 5 -10 10 0 6 5 10 10 10 6 0 10 -4 10 -10z m-4320 -10 c0 -5 -4 -10 -10 -10 -5 0 -10 5 -10 10 0 6 5 10 10 10 6 0 10 -4 10 -10z m4250 -20 c0 -5 -4 -10 -10 -10 -5 0 -10 5 -10 10 0 6 5 10 10 10 6 0 10 -4 10 -10z m-70 -30 c0 -5 -4 -10 -10 -10 -5 0 -10 5 -10 10 0 6 5 10 10 10 6 0 10 -4 10 -10z m-4210 -16 c0 -8 -5 -12 -10 -9 -6 4 -8 11 -5 16 9 14 15 11 15 -7z m4140 -4 c0 -5 -4 -10 -10 -10 -5 0 -10 5 -10 10 0 6 5 10 10 10 6 0 10 -4 10 -10z m-70 -30 c0 -5 -4 -10 -10 -10 -5 0 -10 5 -10 10 0 6 5 10 10 10 6 0 10 -4 10 -10z m1192 -20 c48 -35 76 -38 111 -10 30 24 60 26 77 5 10 -12 10 -27 0 -75 l-13 -60 67 -63 c56 -53 66 -67 66 -96 l0 -34 -87 6 c-95 6 -188 31 -296 80 l-68 30 40 37 c45 42 53 82 26 130 -19 32 -18 45 1 64 21 22 28 20 76 -14z m-5292 -10 c0 -5 -4 -10 -10 -10 -5 0 -10 5 -10 10 0 6 5 10 10 10 6 0 10 -4 10 -10z m3800 -12 c0 -36 26 -100 46 -115 10 -7 36 -19 56 -25 21 -6 38 -14 38 -18 0 -4 -23 -10 -52 -13 -61 -8 -91 -32 -114 -94 -9 -24 -18 -42 -20 -40 -2 2 -8 27 -14 57 -12 66 -22 78 -85 105 -53 24 -51 26 27 39 42 8 83 49 93 96 8 35 25 40 25 8z m230 12 c0 -5 -4 -10 -10 -10 -5 0 -10 5 -10 10 0 6 5 10 10 10 6 0 10 -4 10 -10z m-5330 -10 c0 -5 -4 -10 -10 -10 -5 0 -10 5 -10 10 0 6 5 10 10 10 6 0 10 -4 10 -10z m70 -10 c0 -5 -4 -10 -10 -10 -5 0 -10 5 -10 10 0 6 5 10 10 10 6 0 10 -4 10 -10z m5190 0 c0 -5 -4 -10 -10 -10 -5 0 -10 5 -10 10 0 6 5 10 10 10 6 0 10 -4 10 -10z m-5120 -10 c0 -5 -4 -10 -10 -10 -5 0 -10 5 -10 10 0 6 5 10 10 10 6 0 10 -4 10 -10z m75 -10 c3 -5 1 -10 -4 -10 -6 0 -11 5 -11 10 0 6 2 10 4 10 3 0 8 -4 11 -10z m4975 -10 c0 -5 -4 -10 -10 -10 -5 0 -10 5 -10 10 0 6 5 10 10 10 6 0 10 -4 10 -10z m-4900 -10 c0 -5 -4 -10 -10 -10 -5 0 -10 5 -10 10 0 6 5 10 10 10 6 0 10 -4 10 -10z m70 -10 c0 -5 -4 -10 -10 -10 -5 0 -10 5 -10 10 0 6 5 10 10 10 6 0 10 -4 10 -10z m910 6 c0 -2 -9 -23 -20 -47 -29 -65 -26 -100 15 -153 39 -51 38 -52 -24 -30 -54 18 -90 8 -138 -38 -37 -36 -40 -30 -18 33 16 44 13 89 -5 89 -6 0 -10 6 -10 14 0 7 -9 25 -20 39 -28 35 -25 38 15 21 19 -7 51 -14 71 -14 30 0 44 8 78 44 37 39 56 53 56 42z m-835 -16 c3 -5 1 -10 -4 -10 -6 0 -11 5 -11 10 0 6 2 10 4 10 3 0 8 -4 11 -10z m70 -9 c3 -5 1 -12 -5 -16 -5 -3 -10 1 -10 9 0 18 6 21 15 7z m75 -21 c0 -5 -4 -10 -10 -10 -5 0 -10 5 -10 10 0 6 5 10 10 10 6 0 10 -4 10 -10z m70 -10 c0 -5 -4 -10 -10 -10 -5 0 -10 5 -10 10 0 6 5 10 10 10 6 0 10 -4 10 -10z m75 -10 c3 -5 1 -10 -4 -10 -6 0 -11 5 -11 10 0 6 2 10 4 10 3 0 8 -4 11 -10z m75 -14 c0 -3 -4 -8 -10 -11 -5 -3 -10 -1 -10 4 0 6 5 11 10 11 6 0 10 -2 10 -4z m70 -16 c0 -5 -4 -10 -10 -10 -5 0 -10 5 -10 10 0 6 5 10 10 10 6 0 10 -4 10 -10z m70 -10 c0 -5 -2 -10 -4 -10 -3 0 -8 5 -11 10 -3 6 -1 10 4 10 6 0 11 -4 11 -10z m75 -10 c3 -5 1 -10 -4 -10 -6 0 -11 5 -11 10 0 6 2 10 4 10 3 0 8 -4 11 -10z m4009 -81 c-3 -5 -10 -7 -15 -3 -5 3 -7 10 -3 15 3 5 10 7 15 3 5 -3 7 -10 3 -15z m-34 -53 c0 -11 -19 -15 -25 -6 -3 5 1 10 9 10 9 0 16 -2 16 -4z m-45 -66 c3 -5 -1 -10 -10 -10 -9 0 -13 5 -10 10 3 6 8 10 10 10 2 0 7 -4 10 -10z m-41 -71 c-3 -5 -10 -7 -15 -3 -5 3 -7 10 -3 15 3 5 10 7 15 3 5 -3 7 -10 3 -15z m-34 -53 c0 -3 -4 -8 -10 -11 -5 -3 -10 -1 -10 4 0 6 5 11 10 11 6 0 10 -2 10 -4z m-45 -66 c3 -5 -1 -10 -10 -10 -9 0 -13 5 -10 10 3 6 8 10 10 10 2 0 7 -4 10 -10z m-35 -64 c0 -3 -4 -8 -10 -11 -5 -3 -10 -1 -10 4 0 6 5 11 10 11 6 0 10 -2 10 -4z m-40 -66 c0 -5 -4 -10 -10 -10 -5 0 -10 5 -10 10 0 6 5 10 10 10 6 0 10 -4 10 -10z m-45 -60 c3 -5 1 -10 -4 -10 -6 0 -11 5 -11 10 0 6 2 10 4 10 3 0 8 -4 11 -10z m-35 -64 c0 -3 -4 -8 -10 -11 -5 -3 -10 -1 -10 4 0 6 5 11 10 11 6 0 10 -2 10 -4z m-40 -66 c0 -5 -4 -10 -10 -10 -5 0 -10 5 -10 10 0 6 5 10 10 10 6 0 10 -4 10 -10z m-45 -60 c3 -5 1 -10 -4 -10 -6 0 -11 5 -11 10 0 6 2 10 4 10 3 0 8 -4 11 -10z m-183 -96 c35 -31 44 -35 81 -31 23 3 54 8 70 12 36 9 34 0 -8 -46 -39 -44 -43 -73 -20 -138 17 -49 9 -52 -30 -11 -41 43 -82 54 -134 35 -64 -22 -67 -19 -27 25 51 56 55 90 21 173 -11 26 4 21 47 -19z m148 32 c0 -3 -4 -8 -10 -11 -5 -3 -10 -1 -10 4 0 6 5 11 10 11 6 0 10 -2 10 -4z"/>
<path d="M10755 13828 c-16 -10 -41 -18 -54 -18 -22 0 -23 -1 -7 -25 9 -13 16 -38 16 -56 0 -30 1 -31 23 -16 12 8 37 18 55 21 29 7 31 9 20 29 -6 12 -14 36 -17 53 l-6 31 -30 -19z"/>
<path d="M11525 13210 l0 -55 56 0 c53 0 56 1 47 19 -6 10 -8 35 -4 55 l5 36 -52 0 -52 0 0 -55z"/>
<path d="M3880 12912 c0 -15 -7 -38 -16 -50 -15 -21 -14 -22 13 -22 16 0 37 -6 48 -14 19 -13 21 -10 36 35 15 47 15 49 -3 49 -11 0 -32 7 -48 15 -30 15 -30 15 -30 -13z"/>
<path d="M10350 12290 c0 -12 -13 -34 -29 -50 l-28 -29 27 -10 c15 -5 37 -19 48 -32 l21 -22 11 29 c6 16 21 39 32 52 18 18 19 22 5 22 -9 0 -32 14 -52 31 -33 29 -35 30 -35 9z"/>
<path d="M3287 12084 c-15 -13 -36 -24 -45 -24 -14 0 -13 -3 5 -18 12 -9 27 -29 32 -44 l10 -28 25 25 c14 14 32 25 41 25 19 0 20 16 1 27 -7 4 -19 20 -27 35 l-14 26 -28 -24z"/>
<path d="M11030 12040 c-14 -15 -32 -29 -40 -32 -12 -4 -9 -11 11 -30 15 -14 30 -35 33 -46 7 -21 8 -21 32 7 14 17 34 33 45 36 20 7 19 8 -10 37 -17 17 -31 37 -31 44 0 20 -11 16 -40 -16z"/>
<path d="M2560 11837 c0 -13 -7 -32 -15 -43 -19 -26 -19 -34 4 -34 10 0 30 -9 45 -21 24 -19 26 -19 26 -2 0 10 9 33 20 51 18 29 18 32 2 32 -9 0 -32 9 -49 20 l-33 20 0 -23z"/>
<path d="M1490 11800 c-14 -11 -36 -20 -49 -20 -23 0 -23 -1 -8 -18 9 -10 22 -32 28 -50 11 -31 11 -31 32 -12 11 11 31 20 44 20 26 0 30 12 8 30 -8 7 -18 25 -23 41 l-7 28 -25 -19z"/>
<path d="M9810 11715 c0 -20 -5 -45 -10 -56 -9 -17 -7 -19 17 -19 15 0 40 -7 56 -14 l27 -15 0 37 c0 21 7 48 16 60 15 22 15 22 -26 22 -23 0 -50 5 -61 10 -17 10 -19 7 -19 -25z"/>
<path d="M9122 11291 c-7 -15 -23 -34 -36 -41 l-24 -12 41 -39 c30 -29 43 -36 49 -27 5 7 12 18 16 24 4 5 18 17 31 26 l23 16 -27 14 c-14 8 -34 26 -43 40 l-18 27 -12 -28z"/>
<path d="M5769 10412 c-30 -25 -20 -51 16 -44 31 5 75 -31 100 -84 16 -33 15 -35 -19 -97 -60 -108 -82 -227 -42 -227 7 0 35 45 61 100 27 55 53 100 59 100 6 0 38 -61 71 -135 55 -126 78 -156 91 -121 7 19 -40 214 -71 289 -52 131 -149 237 -216 237 -15 0 -37 -8 -50 -18z"/>
<path d="M9083 10420 c-54 -22 -106 -95 -190 -269 -78 -161 -92 -209 -60 -199 6 2 43 50 81 106 l69 101 35 -75 c26 -55 40 -74 55 -74 18 0 19 5 13 61 -3 34 -18 88 -32 120 l-26 58 31 49 c37 58 69 76 108 61 31 -12 48 0 39 28 -11 36 -74 53 -123 33z"/>
<path d="M6470 10280 c-15 -36 -8 -123 15 -190 49 -145 214 -247 313 -196 52 27 119 139 148 248 10 41 10 49 -3 60 -13 11 -19 9 -34 -12 -147 -205 -159 -215 -219 -190 -33 14 -91 74 -114 118 -15 29 -30 85 -41 155 -5 30 -10 37 -29 37 -17 0 -27 -9 -36 -30z"/>
<path d="M7912 10263 c-4 -10 -7 -49 -7 -88 1 -56 6 -80 27 -121 37 -70 73 -111 120 -135 134 -68 264 35 312 248 20 89 20 113 1 113 -16 0 -19 -4 -89 -130 -63 -111 -93 -142 -138 -142 -20 0 -45 5 -56 11 -30 16 -72 92 -93 168 -10 36 -24 71 -30 79 -16 19 -38 18 -47 -3z"/>
<path d="M5581 10183 c-149 -302 -386 -484 -701 -537 -52 -8 -669 -99 -1370 -200 -701 -102 -1313 -194 -1359 -205 -312 -75 -524 -313 -572 -642 -27 -184 26 -386 140 -538 23 -30 170 -181 329 -334 158 -154 346 -338 418 -409 l130 -129 29 73 c45 117 112 245 151 288 19 21 56 49 82 62 47 23 50 23 562 29 535 7 569 9 851 59 515 91 520 92 713 97 l188 6 -7 -24 c-4 -13 -29 -71 -55 -129 -117 -254 -144 -366 -144 -585 1 -141 4 -172 27 -260 32 -120 117 -294 187 -387 115 -151 307 -256 609 -333 133 -33 310 -64 316 -55 3 5 1 20 -5 34 -10 28 -18 30 -105 27 -55 -2 -66 3 -84 37 -18 34 -6 57 50 97 60 43 66 55 51 112 -22 81 17 104 107 63 24 -11 48 -20 54 -20 6 0 30 19 53 41 34 34 47 40 68 35 32 -8 39 -33 25 -92 -12 -45 -11 -49 10 -63 65 -46 74 -57 68 -83 -6 -21 -15 -27 -51 -32 -59 -9 -90 -42 -108 -115 -15 -58 -15 -59 6 -65 77 -21 489 4 703 42 l94 17 2 245 c2 292 -1 305 -70 316 -84 12 -95 54 -28 109 24 20 47 45 50 56 4 10 -2 44 -12 75 -17 52 -23 60 -83 99 -89 58 -268 147 -288 143 -22 -4 -62 -65 -62 -95 0 -13 11 -56 25 -95 23 -66 24 -73 10 -95 -21 -31 -55 -29 -100 7 -21 17 -41 30 -44 30 -3 0 -32 -18 -65 -40 -63 -43 -95 -49 -120 -24 -19 19 -19 23 -2 98 17 70 10 95 -33 126 -58 40 -33 90 53 106 46 8 78 37 74 67 -3 19 -22 27 -156 63 -84 23 -158 46 -164 52 -23 23 18 75 201 259 418 421 636 543 1059 594 99 12 102 13 102 37 0 17 16 39 50 71 55 50 57 58 35 121 -29 82 8 111 77 61 49 -36 70 -38 105 -11 54 42 106 15 85 -44 -24 -65 -17 -84 53 -151 40 -38 65 -70 65 -83 0 -15 8 -24 28 -28 568 -136 1160 -396 1740 -763 151 -95 184 -111 245 -118 29 -3 214 -41 412 -84 198 -43 477 -103 620 -134 327 -71 569 -132 755 -191 80 -25 155 -47 166 -48 16 -1 185 158 634 594 336 327 634 624 661 660 108 142 153 274 153 455 0 143 -16 210 -79 340 -103 214 -292 359 -525 404 -60 12 -1077 161 -1097 161 -7 0 -13 9 -13 20 0 19 -7 20 -122 20 -120 0 -490 41 -674 75 -44 8 -85 15 -90 15 -5 0 -31 -18 -58 -40 -26 -22 -59 -40 -72 -40 -29 0 -29 1 -3 51 11 23 19 43 17 45 -2 2 -141 24 -309 48 -332 49 -365 55 -453 86 -175 60 -364 214 -461 375 -19 32 -35 52 -35 44 0 -32 -62 -142 -107 -190 -107 -115 -291 -228 -423 -261 -45 -12 -60 -21 -85 -55 -16 -23 -64 -87 -105 -144 -84 -115 -245 -281 -337 -348 -61 -44 -62 -45 -49 -75 12 -29 16 -31 77 -36 60 -5 64 -7 67 -31 2 -16 -8 -38 -28 -63 -35 -45 -37 -72 -10 -151 25 -72 25 -97 2 -118 -25 -23 -33 -22 -78 14 -47 37 -79 34 -131 -11 -45 -40 -98 -42 -115 -5 -9 20 -8 37 4 81 19 68 11 101 -32 133 -32 23 -40 60 -17 79 7 7 37 16 65 23 33 7 58 19 67 32 15 21 21 57 9 57 -3 0 -69 -25 -145 -56 -206 -82 -292 -98 -524 -97 -104 0 -212 5 -240 11 -27 6 -52 9 -54 6 -2 -2 3 -28 11 -58 13 -42 13 -59 4 -77 -16 -34 -51 -35 -87 -5 -43 37 -84 34 -139 -10 -33 -26 -52 -34 -75 -32 -28 3 -30 6 -33 48 -2 24 1 63 7 87 11 40 0 93 -19 93 -3 0 -16 9 -29 21 -16 15 -21 30 -19 52 3 30 0 33 -45 48 -110 36 -318 248 -422 429 -46 78 -47 79 -93 85 -101 13 -194 37 -250 66 -171 85 -265 244 -295 497 l-12 103 -34 -68z m4858 -1177 c7 -8 9 -34 5 -73 -6 -53 -4 -63 15 -82 11 -11 28 -21 36 -21 19 0 37 -34 29 -55 -8 -21 -36 -35 -69 -35 -38 0 -69 -38 -95 -116 -20 -63 -48 -104 -72 -104 -21 0 -58 50 -58 79 0 44 -31 61 -111 61 -52 0 -69 4 -83 19 -22 24 -13 42 48 99 54 49 70 76 62 105 -3 15 5 33 26 56 29 33 32 34 62 22 64 -26 72 -25 118 18 45 43 68 50 87 27z m-3924 -75 l0 -73 40 -27 c66 -45 58 -87 -21 -102 -27 -5 -54 -15 -60 -22 -6 -6 -22 -43 -34 -82 -24 -75 -52 -115 -81 -115 -22 0 -49 37 -49 68 0 12 -11 34 -25 47 -21 22 -33 25 -93 25 -39 0 -73 5 -80 12 -26 26 -13 56 48 110 33 29 60 58 60 65 0 7 21 26 46 44 64 44 227 129 239 125 6 -1 10 -35 10 -75z m4558 -167 c45 -52 81 -65 139 -52 25 6 53 8 62 5 25 -10 19 -51 -14 -92 -36 -45 -37 -55 -8 -104 36 -63 8 -93 -68 -73 -55 15 -75 7 -143 -57 -96 -90 -135 -81 -129 32 l3 70 -45 24 c-25 13 -56 35 -70 48 -20 21 -23 29 -14 52 8 24 19 30 77 44 82 20 92 28 112 90 14 41 21 49 42 49 16 0 36 -13 56 -36z m-1551 -235 c42 -50 44 -51 83 -44 22 4 56 8 75 9 32 1 35 -1 38 -30 2 -22 -5 -40 -24 -63 -30 -36 -34 -73 -10 -100 20 -22 21 -65 0 -82 -13 -11 -23 -10 -60 4 -58 21 -81 12 -155 -59 -60 -56 -95 -68 -119 -39 -12 14 -11 32 5 97 8 31 -5 45 -85 91 -42 25 -56 38 -58 59 -4 34 23 53 98 69 66 14 90 32 90 71 0 32 31 68 59 68 11 0 38 -22 63 -51z m-3682 -11 c0 -4 -16 -26 -36 -48 -42 -46 -44 -63 -15 -147 28 -82 27 -109 -4 -129 -24 -16 -27 -15 -67 12 -24 16 -48 32 -54 36 -6 4 -42 -13 -79 -37 -37 -25 -74 -45 -81 -45 -7 0 -20 10 -28 22 -14 19 -13 24 5 50 36 50 181 199 259 265 68 59 76 63 87 47 7 -10 13 -21 13 -26z m3044 -20 c7 -12 7 -31 -2 -65 -16 -60 -10 -76 34 -102 57 -34 42 -91 -23 -91 -17 0 -43 -5 -56 -11 -26 -12 -32 -21 -67 -104 -27 -64 -47 -85 -81 -85 -23 0 -30 5 -35 28 -22 99 -34 112 -111 112 -61 0 -93 21 -93 61 0 24 9 36 47 62 81 56 84 60 77 121 -6 48 -4 55 16 69 24 17 40 14 84 -16 42 -29 80 -26 124 11 40 34 69 37 86 10z m-2612 -183 c44 -37 74 -42 109 -16 18 13 41 21 57 19 24 -3 27 -7 25 -38 -1 -19 -5 -49 -8 -67 -7 -29 -2 -38 64 -107 74 -79 84 -102 52 -130 -17 -16 -25 -16 -56 -6 -60 20 -82 8 -115 -64 -29 -65 -51 -83 -89 -71 -19 6 -30 28 -50 103 -16 56 -42 82 -84 82 -69 0 -78 53 -16 102 53 43 63 69 44 115 -18 43 -19 75 -3 91 18 18 37 15 70 -13z m3968 -281 c11 -12 10 -25 -4 -72 l-18 -56 41 -35 c63 -54 53 -101 -22 -101 -58 0 -72 -13 -103 -90 -31 -80 -55 -110 -88 -110 -31 0 -42 16 -49 70 -7 52 -26 70 -76 70 -46 0 -102 16 -113 32 -21 33 -7 57 58 103 l66 48 -6 58 c-6 54 -5 59 17 74 26 17 48 13 86 -17 36 -28 85 -23 123 12 37 33 69 38 88 14z m507 -30 c52 -30 64 -30 113 2 35 23 44 25 65 16 23 -11 25 -17 25 -79 0 -38 3 -78 6 -90 5 -18 -8 -37 -71 -98 -55 -53 -81 -73 -89 -65 -5 5 -54 10 -110 10 -78 0 -103 3 -118 17 -29 26 -22 50 22 78 60 38 62 64 13 192 -3 7 7 24 21 38 28 28 44 25 123 -21z m-5380 -798 c46 -39 70 -41 112 -12 41 28 65 27 82 -5 6 -13 6 -25 -1 -38 -5 -11 -10 -36 -10 -56 0 -32 9 -45 66 -101 52 -52 65 -70 62 -91 -5 -39 -29 -50 -80 -36 -55 15 -74 4 -100 -55 -54 -125 -109 -121 -143 10 -16 59 -44 88 -85 88 -32 0 -60 23 -60 49 0 10 23 38 50 63 54 49 58 60 35 115 -18 43 -19 65 -3 81 18 18 44 14 75 -12z"/>
<path d="M7238 9905 c-68 -37 -91 -147 -47 -225 35 -62 129 -111 170 -89 28 15 23 25 -21 50 -43 24 -80 85 -80 131 0 28 35 78 54 78 7 0 25 -9 40 -21 55 -43 78 10 27 62 -24 23 -38 29 -73 29 -24 -1 -55 -7 -70 -15z"/>
<path d="M7044 9365 c-10 -26 18 -88 60 -130 82 -82 216 -123 341 -106 146 21 352 155 329 215 -5 13 -13 11 -44 -9 -98 -62 -249 -107 -355 -108 -107 0 -177 27 -254 99 -64 59 -69 61 -77 39z"/>
<path d="M7932 6843 c-34 -14 -157 -46 -324 -83 -127 -29 -120 -45 16 -37 140 9 274 48 338 98 29 23 8 38 -30 22z"/>
<path d="M8195 6712 c-88 -45 -334 -118 -532 -158 -25 -5 -33 -44 -9 -44 49 0 231 24 281 36 140 36 325 129 325 164 0 29 -11 30 -65 2z"/>
<path d="M8230 6525 c-57 -33 -235 -96 -380 -135 -223 -60 -224 -61 -70 -56 154 5 238 25 353 82 98 49 124 69 129 99 6 29 2 30 -32 10z"/>
<path d="M4653 6515 c-201 -55 -429 -235 -1050 -830 -332 -318 -550 -502 -1122 -950 -313 -244 -355 -275 -384 -275 -21 0 -18 -19 5 -33 34 -22 219 88 558 333 516 372 680 511 1135 960 548 541 763 711 953 754 45 10 57 17 57 32 0 16 -8 19 -50 21 -27 1 -74 -4 -102 -12z"/>
<path d="M3695 6289 c-157 -125 -293 -208 -543 -330 -134 -66 -240 -124 -237 -129 22 -35 238 32 473 145 194 94 273 146 361 241 74 79 95 119 70 135 -24 15 -32 11 -124 -62z"/>
<path d="M8083 6284 c-40 -13 -156 -40 -257 -60 -179 -36 -208 -47 -190 -75 14 -23 208 0 369 44 84 23 168 71 173 100 4 22 -6 21 -95 -9z"/>
<path d="M9822 5760 c2 -16 28 -36 103 -77 127 -70 195 -116 320 -217 194 -157 364 -266 620 -395 220 -112 306 -135 313 -84 4 31 -36 58 -254 171 -266 139 -421 235 -664 412 -139 102 -324 197 -403 208 -36 4 -39 3 -35 -18z"/>
<path d="M8480 5721 c0 -26 1 -26 122 -62 279 -83 553 -210 748 -347 36 -25 220 -161 410 -302 487 -362 668 -485 955 -649 296 -170 750 -386 797 -379 17 2 23 10 23 28 0 21 -17 35 -100 87 -55 35 -194 111 -310 169 -458 232 -756 422 -1311 834 -538 400 -740 508 -1146 610 -141 36 -188 39 -188 11z"/>
<path d="M5682 5668 c-22 -22 -13 -37 46 -74 184 -117 413 -339 733 -710 220 -255 313 -333 514 -429 212 -102 405 -138 472 -89 48 36 42 51 -19 47 -42 -4 -74 3 -158 32 -304 106 -450 211 -700 500 -153 178 -510 530 -622 613 -141 105 -233 143 -266 110z"/>
<path d="M2026 11465 c-3 -8 -19 -23 -37 -34 -30 -18 -30 -19 -9 -26 12 -4 29 -19 38 -33 l17 -27 37 36 37 36 -25 13 c-13 7 -26 21 -30 32 -7 22 -20 23 -28 3z"/>
<path d="M760 10820 c0 -17 -5 -40 -10 -51 -10 -17 -7 -19 28 -19 21 0 43 -5 50 -12 9 -9 12 -6 12 14 0 15 4 38 9 51 9 23 7 25 -22 29 -18 3 -40 8 -49 13 -15 6 -18 2 -18 -25z"/>
<path d="M1420 10189 c-13 -6 -35 -7 -48 -4 -21 5 -22 4 -12 -16 7 -12 10 -36 8 -54 -3 -29 -2 -32 13 -24 10 5 34 9 54 9 33 0 35 1 24 21 -6 12 -9 34 -7 50 5 32 4 32 -32 18z"/>
<path d="M9620 3550 c-8 -5 -32 -10 -54 -10 -33 0 -37 -3 -30 -17 4 -10 9 -37 12 -59 4 -42 4 -42 30 -28 15 8 40 14 56 14 23 0 27 3 21 18 -5 9 -11 34 -14 54 -5 30 -9 36 -21 28z"/>
<path d="M226 3499 c-10 -6 -36 -9 -57 -6 -36 5 -38 4 -28 -15 6 -11 9 -38 7 -59 -3 -33 -1 -38 12 -32 8 4 34 7 58 8 34 0 41 3 35 15 -4 8 -7 34 -7 58 0 23 -1 42 -1 42 0 0 -8 -5 -19 -11z"/>
<path d="M1300 3226 c0 -8 -12 -28 -26 -45 -24 -29 -24 -31 -7 -37 10 -4 30 -18 45 -32 l27 -24 15 36 c8 20 22 39 31 42 24 10 18 19 -21 33 -19 7 -38 19 -41 27 -7 18 -23 18 -23 0z"/>
<path d="M10292 2831 c0 -21 -5 -48 -11 -59 -11 -20 -10 -21 18 -16 17 4 44 2 61 -4 l30 -11 0 40 c0 22 4 48 9 58 8 15 6 17 -19 13 -16 -2 -43 0 -59 6 -30 10 -30 10 -29 -27z"/>
<path d="M1835 2541 l0 -56 55 0 55 0 0 56 0 56 -31 -9 c-18 -5 -42 -5 -55 1 -23 8 -24 7 -24 -48z"/>
<path d="M2480 2171 c0 -15 -9 -40 -21 -55 l-20 -26 23 0 c13 0 38 -9 56 -20 l32 -20 0 24 c0 13 9 35 20 49 26 32 25 37 -4 37 -13 0 -35 9 -49 20 -33 26 -37 25 -37 -9z"/>
<path d="M4097 2074 c-15 -13 -37 -24 -48 -24 -24 0 -24 -6 2 -33 11 -12 23 -34 26 -48 5 -27 5 -27 25 -7 11 11 33 24 49 30 l30 10 -21 23 c-12 12 -24 34 -28 48 l-7 25 -28 -24z"/>
<path d="M8975 2061 c-3 -11 -19 -31 -34 -44 l-28 -23 43 -37 c40 -35 43 -36 49 -17 4 11 17 28 31 36 29 20 30 31 3 39 -11 4 -29 20 -39 37 -17 28 -18 29 -25 9z"/>
<path d="M9631 1716 c-13 -13 -34 -27 -48 -30 l-24 -7 25 -30 c14 -17 26 -40 26 -52 l0 -20 23 21 c12 11 35 26 51 32 27 10 27 12 13 28 -9 10 -22 32 -30 50 l-13 32 -23 -24z"/>
<path d="M8350 1574 c0 -14 -7 -38 -15 -54 l-15 -29 40 -11 c21 -6 42 -15 45 -20 11 -19 25 -10 25 15 0 15 7 39 15 55 15 29 15 30 -7 30 -13 0 -38 9 -55 20 l-33 20 0 -26z"/>
<path d="M2390 1485 c0 -9 -14 -31 -31 -48 -23 -22 -28 -32 -18 -36 8 -2 27 -18 43 -34 22 -21 31 -26 35 -16 2 8 18 27 34 43 21 22 26 31 16 35 -8 2 -29 19 -46 38 -24 24 -33 30 -33 18z"/>
<path d="M7596 1238 c-9 -14 -30 -31 -46 -38 l-30 -12 26 -20 c14 -12 30 -32 35 -45 l9 -24 31 30 c17 17 37 31 45 31 20 0 17 13 -7 28 -11 7 -26 27 -33 44 l-14 31 -16 -25z"/>
<path d="M3720 1170 c-8 -5 -34 -10 -58 -10 -43 0 -43 0 -28 -22 9 -12 16 -38 16 -56 0 -29 3 -33 18 -26 9 4 34 9 54 12 25 3 35 8 31 16 -4 6 -10 30 -13 53 -4 35 -8 41 -20 33z"/>
<path d="M6928 211 c-3 -20 -8 -44 -12 -53 -7 -15 -3 -18 18 -18 15 0 40 -7 56 -15 l28 -14 4 42 c3 23 8 51 13 61 7 16 5 18 -9 13 -9 -4 -34 -1 -55 7 l-39 13 -4 -36z"/>
</g>
</svg>